<?xml version="1.0" encoding="utf-8"?>
<!-- Generator: Adobe Illustrator 16.0.0, SVG Export Plug-In . SVG Version: 6.00 Build 0)  -->
<!DOCTYPE svg PUBLIC "-//W3C//DTD SVG 1.1//EN" "http://www.w3.org/Graphics/SVG/1.1/DTD/svg11.dtd">
<svg version="1.1" id="Layer_1" xmlns="http://www.w3.org/2000/svg" xmlns:xlink="http://www.w3.org/1999/xlink" x="0px" y="0px"
	 width="251px" height="71px" viewBox="0 0 251 71" enable-background="new 0 0 251 71" xml:space="preserve">
<g>
	<path fill="#FFFBF4" d="M10.499,3.365H9.341v0.318L9.486,3.51H9.92c0.192,0,0.289,0.154,0.289,0.463l0.145,0.145h0.145V3.365z"/>
	<polygon fill="#FFFBF4" points="13.334,4.11 13.327,4.117 13.334,4.117 	"/>
	<polygon fill="#FFFBF4" points="10.499,25.006 10.47,25.295 10.99,25.353 10.672,25.035 	"/>
	<path fill="#FFFBF4" d="M16.834,17.368l-0.058,0.29l0.521,0.029c-0.077-0.405-0.56-0.732-1.446-0.983L15.33,16.82l0.029-0.29
		h-0.173c-0.193,0.135-0.376,0.26-0.55,0.376l0.318,0.318L16.834,17.368z"/>
	<polygon fill="#FFFBF4" points="9.63,4.117 9.486,5.303 9.63,5.448 10.064,5.448 9.92,5.303 10.064,4.551 	"/>
	<polygon fill="#FFFBF4" points="13.16,4.117 12.582,3.683 12.582,4.551 12.871,4.551 13.327,4.117 	"/>
	<path fill="#FFFBF4" d="M11.83,4.84h-0.145l0.145,0.752l-0.434,0.289h-0.145l-0.752-0.145v0.29h1.331l0.463-0.29
		C12.157,5.14,12.003,4.84,11.83,4.84z"/>
	<polygon fill="#FFFBF4" points="18.455,19.422 17.963,19.364 17.934,19.653 18.426,19.711 	"/>
	<polygon fill="#FFFBF4" points="11.83,28.94 11.974,28.97 12.032,28.68 11.511,28.623 	"/>
	<polygon fill="#FFFBF4" points="1.935,2.034 2.224,2.034 2.224,1.6 1.935,1.89 	"/>
	<polygon fill="#FFFBF4" points="10.556,22.952 10.527,23.241 10.817,23.559 10.99,23.559 11.02,23.415 10.904,22.98 	"/>
	<polygon fill="#FFFBF4" points="16.834,20.463 16.834,20.319 16.314,20.146 15.967,20.406 15.938,20.55 16.111,20.579 	"/>
	<path fill="#FFFBF4" d="M12.697,20.579h-0.173l0.434,0.752l0.492,0.058C13.237,20.888,12.987,20.618,12.697,20.579z"/>
	<polygon fill="#FFFBF4" points="14.317,21.447 13.623,21.39 13.623,21.563 14.317,21.621 	"/>
	<polygon fill="#FFFBF4" points="16.256,20.724 15.938,20.695 15.909,20.84 16.227,21.158 	"/>
	<polygon fill="#FFFBF4" points="13.479,3.828 13.334,3.828 13.334,4.11 13.479,3.973 	"/>
	<polygon fill="#FFFBF4" points="25.312,9.296 25.601,9.585 25.746,9.585 25.746,9.007 25.312,9.007 	"/>
	<polygon fill="#FFFBF4" points="28.118,2.786 27.8,2.497 27.655,2.497 27.973,2.786 	"/>
	<path fill="#FFFBF4" d="M25.601,3.51V3.365l0.145-0.146V3.076c-0.405-0.019-0.607-0.116-0.607-0.29
		c-0.29,0.078-0.482,0.271-0.579,0.579c0.597,0,0.896,0.155,0.896,0.463l-0.145,0.868c0.29,0,0.434,0.106,0.434,0.318h0.145
		l0.29-0.752C25.986,3.76,25.793,3.51,25.601,3.51z"/>
	<polygon fill="#FFFBF4" points="23.807,2.179 23.518,2.642 23.518,2.786 23.981,2.786 24.125,2.353 23.981,2.179 	"/>
	<path fill="#FFFBF4" d="M22.476,5.882v0.145h0.463l0.29-0.29V5.593l-0.29-0.29C22.939,5.689,22.785,5.882,22.476,5.882z"/>
	<path fill="#FFFBF4" d="M28.697,8.11h-0.145v0.579l0.29,0.318l0.463-0.174C29.111,8.39,28.909,8.148,28.697,8.11z"/>
	<path fill="#FFFBF4" d="M27.366,5.303v1.331l-0.289,0.434l0.289,0.289c0.25-0.675,0.55-1.013,0.897-1.013V6.171
		c-0.405-0.482-0.607-0.868-0.607-1.157L27.366,5.303z"/>
	<polygon fill="#FFFBF4" points="28.552,3.365 28.552,3.22 27.973,2.931 27.366,3.076 27.655,3.365 	"/>
	<polygon fill="#FFFBF4" points="17.616,3.683 17.153,3.683 16.863,3.973 16.863,4.117 17.327,4.117 17.616,3.828 	"/>
	<path fill="#FFFBF4" d="M15.677,7.82l0.463-0.607h-0.463l-1.013,0.752v0.434h0.145c0.231-0.192,0.568-0.289,1.012-0.289
		l-0.145-0.145L15.677,7.82L15.677,7.82z"/>
	<polygon fill="#FFFBF4" points="16.14,8.399 16.574,8.399 16.574,8.11 16.43,8.11 	"/>
	<polygon fill="#FFFBF4" points="19.38,5.737 19.38,5.303 19.091,5.593 19.236,5.737 	"/>
	<polygon fill="#FFFBF4" points="13.334,8.688 13.334,8.833 13.623,9.151 13.768,9.151 13.768,9.007 13.479,8.688 	"/>
	<path fill="#FFFBF4" d="M19.525,7.068c-0.251,0.694-0.541,1.042-0.868,1.042v0.145l1.013,0.434l0.318-0.434L19.67,7.068H19.525z"/>
	<path fill="#FFFBF4" d="M17.905,7.502V7.82l0.434,0.434V8.11C18.204,7.705,18.059,7.502,17.905,7.502z"/>
	<path fill="#FFFBF4" d="M19.814,2.786l0.174,0.724v1.186c0.192,0,0.385-0.492,0.579-1.476V3.076l-0.29-0.29H19.814z"/>
	<path fill="#FFFBF4" d="M17.76,4.262l-0.145,0.145v0.145l0.723,0.289h0.318C18.445,4.455,18.146,4.262,17.76,4.262z"/>
	<path fill="#FFFBF4" d="M13.334,40.05l-0.724-0.289h-0.318c0.212,0.386,0.511,0.579,0.896,0.579l0.145-0.145L13.334,40.05
		L13.334,40.05z"/>
	<polygon fill="#FFFBF4" points="6.824,42.249 6.969,42.423 7.143,42.423 7.432,41.96 7.432,41.814 6.969,41.814 	"/>
	<path fill="#FFFBF4" d="M12.292,36.492v-0.145l-1.013-0.435l-0.318,0.435l0.318,1.186h0.145
		C11.675,36.839,11.964,36.492,12.292,36.492z"/>
	<path fill="#FFFBF4" d="M7.721,38.864v0.145l0.289,0.29c0-0.386,0.154-0.579,0.463-0.579v-0.145H8.01L7.721,38.864z"/>
	<polygon fill="#FFFBF4" points="17.616,35.913 17.616,35.769 17.327,35.45 17.182,35.45 17.182,35.595 17.471,35.913 	"/>
	<path fill="#FFFBF4" d="M10.961,39.906c-0.193,0-0.386,0.492-0.579,1.476v0.146l0.289,0.289h0.463l-0.174-0.724L10.961,39.906
		L10.961,39.906z"/>
	<path fill="#FFFBF4" d="M15.127,36.492l0.145,0.145v0.146l-0.463,0.606h0.463l1.012-0.752v-0.434H16.14
		C15.909,36.396,15.571,36.492,15.127,36.492z"/>
	<polygon fill="#FFFBF4" points="13.334,40.773 13.334,40.918 13.797,40.918 14.086,40.629 14.086,40.484 13.623,40.484 	"/>
	<polygon fill="#FFFBF4" points="14.375,36.203 14.375,36.492 14.52,36.492 14.81,36.203 	"/>
	<polygon fill="#FFFBF4" points="11.569,38.864 11.569,39.298 11.858,39.009 11.714,38.864 	"/>
	<path fill="#FFFBF4" d="M2.687,38.257v0.173c0.405,0.482,0.607,0.868,0.607,1.157l0.29-0.289v-1.331l0.289-0.434l-0.289-0.289
		C3.333,37.919,3.034,38.257,2.687,38.257z"/>
	<polygon fill="#FFFBF4" points="2.397,41.236 2.397,41.381 2.976,41.67 3.584,41.525 3.294,41.236 	"/>
	<polygon fill="#FFFBF4" points="2.832,41.814 3.15,42.104 3.294,42.104 2.976,41.814 	"/>
	<path fill="#FFFBF4" d="M2.397,35.913l-0.289-0.318l-0.463,0.174c0.192,0.444,0.395,0.685,0.607,0.723h0.145V35.913z"/>
	<path fill="#FFFBF4" d="M13.044,37.1v-0.317l-0.434-0.435v0.146C12.745,36.896,12.89,37.1,13.044,37.1z"/>
	<rect x="13.623" y="37.533" fill="#FFFBF4" width="0.318" height="0.896"/>
	<path fill="#FFFBF4" d="M17.876,15.69v0.145l-0.202,0.116l0.955,0.694l0.318,0.029l0.896-0.116l-0.058,0.463
		c0.463,0.039,0.723-0.241,0.781-0.839l1.042,0.087v-0.145c0.039-0.25-0.174-0.415-0.637-0.492l0.116-1.186l-0.347-0.029
		c-0.039,0.328-0.579,0.588-1.62,0.781l-1.88-0.146l-0.029,0.146C17.674,15.275,17.895,15.439,17.876,15.69z M18.397,15.43
		l0.781,0.636l-0.347,0.26h-0.174l-0.318-0.318L18.397,15.43z"/>
	<path fill="#FFFBF4" d="M5.493,40.773l0.145-0.867c-0.29,0-0.434-0.106-0.434-0.318H5.06L4.77,40.34
		c0.192,0.501,0.386,0.752,0.579,0.752v0.145l-0.145,0.146v0.146c0.405,0.02,0.607,0.115,0.607,0.289
		c0.29-0.076,0.482-0.27,0.579-0.578C5.792,41.236,5.493,41.083,5.493,40.773z"/>
	<polygon fill="#FFFBF4" points="5.638,35.306 5.349,35.016 5.204,35.016 5.204,35.595 5.638,35.595 	"/>
	<polygon fill="#FFFBF4" points="18.715,18.091 18.947,18.265 19.583,18.323 18.976,18.12 	"/>
	<polygon fill="#FFFBF4" points="17.703,17.715 17.992,17.744 17.963,18.033 18.715,18.091 17.992,17.6 	"/>
	<polygon fill="#FFFBF4" points="17.471,40.773 17.616,40.773 17.616,40.491 17.471,40.629 	"/>
	<polygon fill="#FFFBF4" points="19.959,18.352 19.583,18.323 20.943,18.728 20.856,18.265 	"/>
	<path fill="#FFFBF4" d="M22.708,18.554v0.173l0.492,0.029c-0.039,0.289,0.067,0.444,0.318,0.463l0.174,0.029l0.318-0.405
		c0.019-0.077,0.038-0.145,0.058-0.202L22.708,18.554z"/>
	<polygon fill="#FFFBF4" points="21.203,13.289 21.261,12.826 21.087,12.681 20.538,13.057 20.538,13.23 20.827,13.549 	"/>
	<polygon fill="#FFFBF4" points="22.332,18.988 22.505,18.843 21.753,18.786 	"/>
	<polygon fill="#FFFBF4" points="20.972,18.728 20.943,18.728 20.943,18.873 21.753,18.786 20.972,18.583 	"/>
	<polygon fill="#FFFBF4" points="17.269,17.831 17.442,17.86 17.703,17.715 17.297,17.686 	"/>
	<polygon fill="#FFFBF4" points="17.623,40.484 17.79,40.484 18.368,40.918 18.368,40.05 18.079,40.05 	"/>
	<polygon fill="#FFFBF4" points="21.319,40.484 21.464,39.298 21.319,39.152 20.885,39.152 21.03,39.298 20.885,40.05 	"/>
	<polygon fill="#FFFBF4" points="17.616,40.491 17.623,40.484 17.616,40.484 	"/>
	<path fill="#FFFBF4" d="M21.03,41.092c-0.193,0-0.29-0.154-0.29-0.463l-0.145-0.145H20.45v0.752h1.157v-0.318l-0.145,0.173
		L21.03,41.092L21.03,41.092z"/>
	<path fill="#FFFBF4" d="M20.451,38.575H19.12l-0.463,0.29c0.135,0.598,0.29,0.896,0.463,0.896h0.145L19.12,39.01l0.434-0.289h0.145
		l0.752,0.146V38.575z"/>
	<polygon fill="#FFFBF4" points="29.015,42.566 28.726,42.566 28.726,43.001 29.015,42.712 	"/>
	<polygon fill="#FFFBF4" points="22.679,18.873 22.708,18.728 22.505,18.843 	"/>
	<rect x="17.008" y="6.171" fill="#FFFBF4" width="0.318" height="0.897"/>
	<path fill="#FFFBF4" d="M66.771,6.258h-0.55v0.145c0.174,0,0.261,0.145,0.261,0.434h0.289V6.258z"/>
	<path fill="#FFFBF4" d="M64.253,32.846l0.145,0.434h0.116l0.29-0.289v-0.29l-0.29-0.26C64.34,32.441,64.253,32.577,64.253,32.846z"
		/>
	<polygon fill="#FFFBF4" points="46.113,39.473 46.374,39.473 46.519,39.038 46.374,39.038 	"/>
	<polygon fill="#FFFBF4" points="69.027,19.769 69.172,19.769 69.316,19.335 69.027,19.335 	"/>
	<polygon fill="#FFFBF4" points="58.062,41.15 58.062,41.439 58.467,41.584 58.467,41.294 58.207,41.005 	"/>
	<polygon fill="#FFFBF4" points="61.418,39.473 61.418,39.587 61.708,39.587 61.852,39.184 61.708,39.184 	"/>
	<polygon fill="#FFFBF4" points="58.207,37.91 58.612,38.055 58.612,37.766 58.207,37.766 	"/>
	<path fill="#FFFBF4" d="M72.528,14.417v-0.261h-0.26l-0.145,0.116h-0.145l-0.145-0.116c0,0.271-0.231,0.405-0.694,0.405v0.145h0.55
		L72.528,14.417z"/>
	<polygon fill="#FFFBF4" points="46.663,34.524 47.936,34.12 47.936,33.975 47.357,33.83 	"/>
	<polygon fill="#FFFBF4" points="47.502,31.863 47.097,31.573 46.952,31.573 46.952,31.863 47.213,32.152 	"/>
	<polygon fill="#FFFBF4" points="44.001,26.25 44.001,26.395 44.696,26.25 44.696,25.96 44.551,25.96 43.856,26.105 	"/>
	<path fill="#FFFBF4" d="M46.952,35.942c0,0.463,0.231,0.792,0.694,0.984h0.29v-0.55l-0.984-0.983V35.942z"/>
	<polygon fill="#FFFBF4" points="45.129,34.958 44.84,34.958 44.84,35.537 44.985,35.537 	"/>
	<path fill="#FFFBF4" d="M44.696,37.504l0.145,0.116l-0.145,0.146v0.145l0.289,0.289l0.405-0.145v0.288h0.145
		c0-0.192,0.192-0.288,0.579-0.288l0.26-0.291v-0.26l-0.405,0.26l-0.839-0.26H44.696z"/>
	<polygon fill="#FFFBF4" points="46.113,30.474 45.679,30.59 45.679,30.734 46.113,30.734 	"/>
	<path fill="#FFFBF4" d="M44.551,18.091v0.26h0.145l0.549-0.55h-0.26C44.985,17.995,44.84,18.091,44.551,18.091z"/>
	<polygon fill="#FFFBF4" points="71.284,24.398 71.284,24.543 71.979,24.543 71.689,24.283 	"/>
	<polygon fill="#FFFBF4" points="70.011,25.96 70.445,25.96 70.445,25.671 69.866,25.527 	"/>
	<polygon fill="#FFFBF4" points="68.738,24.688 68.593,24.543 68.449,24.543 68.333,24.688 68.333,24.977 68.449,24.833 
		68.883,24.833 69.316,25.122 69.316,24.398 69.172,24.398 	"/>
	<path fill="#FFFBF4" d="M72.268,20.348l-0.723,0.116l0.145,0.145v0.145l0.145-0.145h0.579c0.174,0,0.261,0.193,0.261,0.579
		l0.145,0.145h0.145l0.145-0.145l-0.145-0.839L72.268,20.348L72.268,20.348z"/>
	<path fill="#FFFBF4" d="M74.235,22.17c-0.386,0-0.579-0.241-0.579-0.723h-0.26l-0.145,0.723l0.405,0.145l0.434-0.145l0.145,0.145
		v0.116l0.405-0.116v-0.579h-0.116C74.524,22.026,74.428,22.17,74.235,22.17z"/>
	<polygon fill="#FFFBF4" points="68.449,25.122 68.449,25.266 68.593,25.671 68.449,25.816 68.883,25.816 68.883,25.671 
		68.593,25.122 	"/>
	<polygon fill="#FFFBF4" points="74.09,25.527 73.801,25.527 73.656,25.96 74.09,25.96 	"/>
	<polygon fill="#FFFBF4" points="65.932,32.441 66.076,32.557 66.481,32.557 66.481,32.441 65.932,32.297 	"/>
	<polygon fill="#FFFBF4" points="66.076,29.896 66.366,30.185 66.481,30.185 66.221,29.896 	"/>
	<path fill="#FFFBF4" d="M67.754,23.704l-0.145,0.145h-0.145c-0.251,0-0.386-0.231-0.405-0.694h-0.29
		c0,0.271-0.097,0.405-0.289,0.405l-0.116-0.145h-0.145v0.145c0,0.231,0.511,0.425,1.534,0.579c0,0.27,0.096,0.405,0.289,0.405
		l0.145-0.145v-0.116C67.899,24.283,67.754,24.09,67.754,23.704z"/>
	<polygon fill="#FFFBF4" points="66.076,26.8 66.076,26.944 66.221,27.378 66.626,27.378 66.366,26.8 	"/>
	<path fill="#FFFBF4" d="M65.093,31.718l0.145,0.434h0.145l0.26-0.289v-0.29l-0.26-0.26C65.189,31.313,65.093,31.448,65.093,31.718z
		"/>
	<polygon fill="#FFFBF4" points="67.609,28.073 67.609,27.928 67.465,28.073 67.205,28.073 67.06,27.928 66.915,27.928 
		66.771,28.478 67.205,28.478 67.754,28.217 	"/>
	<polygon fill="#FFFBF4" points="67.754,31.573 67.899,31.718 67.754,31.863 68.188,31.863 68.043,31.313 	"/>
	<path fill="#FFFBF4" d="M46.229,33.83l0.145,0.145h0.29c0-0.482-0.145-0.762-0.434-0.839l0.145,0.146v0.145L46.229,33.83z"/>
	<rect x="42.149" y="18.091" fill="#FFFBF4" width="0.434" height="0.26"/>
	<path fill="#FFFBF4" d="M43.133,8.515h-0.116l-0.579,0.29V9.21C42.844,8.997,43.076,8.766,43.133,8.515z"/>
	<polygon fill="#FFFBF4" points="40.182,20.203 39.777,20.059 39.777,20.348 40.182,20.348 	"/>
	<polygon fill="#FFFBF4" points="49.209,40.166 49.209,40.021 48.63,39.877 48.63,40.021 48.775,40.166 	"/>
	<rect x="38.504" y="14.996" fill="#FFFBF4" width="0.434" height="0.289"/>
	<polygon fill="#FFFBF4" points="37.955,22.865 38.359,22.72 38.359,22.431 38.215,22.576 38.07,22.576 37.955,22.431 	"/>
	<polygon fill="#FFFBF4" points="37.955,20.897 37.521,20.608 37.521,20.897 37.955,21.042 	"/>
	<polygon fill="#FFFBF4" points="38.938,19.914 38.938,19.48 38.504,19.48 38.504,19.769 38.793,20.059 	"/>
	<polygon fill="#FFFBF4" points="39.633,34.958 39.633,35.393 39.777,35.393 40.182,35.248 39.922,34.958 	"/>
	<path fill="#FFFBF4" d="M38.07,30.04h-0.116l-0.579-0.145L37.23,30.04v0.145l1.417,0.839v-0.29c0-0.328-0.145-0.607-0.434-0.839
		L38.07,30.04z"/>
	<polygon fill="#FFFBF4" points="49.469,41.005 49.469,41.15 50.048,41.15 50.048,40.716 49.469,40.6 49.325,40.716 49.325,40.859 
		49.614,40.859 	"/>
	<polygon fill="#FFFBF4" points="45.824,40.021 45.679,40.166 45.535,40.6 45.679,40.6 46.229,40.311 46.229,40.166 45.969,40.166 	
		"/>
	<polygon fill="#FFFBF4" points="40.472,35.248 40.472,35.653 40.616,35.797 40.761,35.797 40.761,35.653 40.616,35.248 	"/>
	<path fill="#FFFBF4" d="M51.032,40.6v-0.289c-0.193,0-0.29-0.145-0.29-0.434h-0.549l0.26,0.723H51.032z"/>
	<polygon fill="#FFFBF4" points="51.582,35.393 51.582,35.248 51.292,34.958 51.176,34.958 51.292,35.103 51.292,35.248 
		51.032,35.248 51.032,35.537 51.437,35.248 	"/>
	<polygon fill="#FFFBF4" points="37.81,24.283 37.81,24.543 38.359,24.543 38.07,24.283 	"/>
	<path fill="#FFFBF4" d="M42.583,28.623l0.434,0.723h0.694l0.145-0.145h0.145l0.549,0.549h0.145
		c-0.579-0.926-1.003-1.389-1.273-1.389v-0.723h-0.29c0,0.29-0.087,0.434-0.26,0.434l-0.579-0.146v0.146l-0.145-0.146h-0.116
		l-0.579,0.839l0.145,0.579h0.145c0-0.386,0.231-0.675,0.694-0.868h0.434v0.145L42.583,28.623L42.583,28.623z"/>
	<rect x="44.262" y="36.926" fill="#FFFBF4" width="0.289" height="0.434"/>
	<polygon fill="#FFFBF4" points="42.294,34.12 41.889,34.12 42.034,34.669 42.294,34.669 42.583,34.409 42.583,34.12 42.439,34.264 
			"/>
	<polygon fill="#FFFBF4" points="41.745,36.087 41.455,36.376 41.745,36.636 41.889,36.521 41.889,36.636 42.294,36.521 
		42.149,36.087 	"/>
	<path fill="#FFFBF4" d="M44.262,39.587l0.145-0.116v-0.289l-0.694-0.289v0.145c0.193,0.463,0.521,0.693,0.984,0.693h0.694v-0.145
		l-0.694-0.116L44.262,39.587z"/>
	<polygon fill="#FFFBF4" points="43.018,37.359 43.278,37.07 43.278,36.926 42.873,37.359 	"/>
	<polygon fill="#FFFBF4" points="44.001,36.926 44.146,36.376 44.001,36.376 43.423,36.636 43.712,36.926 	"/>
	<polygon fill="#FFFBF4" points="39.083,25.266 39.083,25.411 39.488,24.977 39.343,24.977 	"/>
	<path fill="#FFFBF4" d="M39.488,24.833c0.193,0,0.29-0.145,0.29-0.434v-0.116h-0.145L39.488,24.833z"/>
	<polygon fill="#FFFBF4" points="43.133,26.8 43.712,26.25 43.423,26.25 43.018,26.395 	"/>
	<polygon fill="#FFFBF4" points="42.149,32.152 41.6,32.152 41.311,32.441 41.889,32.557 	"/>
	<path fill="#FFFBF4" d="M40.616,23.415l0.145-0.116h0.29l-0.145,0.116v0.145l0.145,0.145l0.116-0.145h0.145l0.29,0.29l-0.145,0.145
		h0.694V23.85l-0.116-0.434h0.261v0.29h0.434l-0.145-0.145v-0.26h0.145l0.549,0.405l0.434-0.145l-0.145-0.145V23.3l0.145-0.723
		h-0.839v-0.26h-0.145v0.26c-0.656-0.135-0.984-0.366-0.984-0.694v-0.145L41.6,21.881h-0.145c-0.328-0.212-0.56-0.54-0.694-0.984
		h-0.145v0.145l0.145,0.405c-0.309,0.23-0.733,0.376-1.273,0.434c0-0.231-0.184-0.376-0.55-0.434l-0.145,0.145v0.145
		c0.752,0,1.128,0.473,1.128,1.417h-0.145c-0.193,0-0.29,0.135-0.29,0.405c-0.752,0.329-1.128,0.569-1.128,0.724h0.145
		c0.848-0.193,1.273-0.482,1.273-0.868l0.839-0.116L40.616,23.415L40.616,23.415z"/>
	<polygon fill="#FFFBF4" points="40.472,28.912 40.616,29.346 40.761,29.346 40.906,28.912 41.311,29.056 41.311,28.623 
		40.616,28.478 	"/>
	<polygon fill="#FFFBF4" points="41.745,26.51 41.166,26.944 40.761,26.8 40.616,26.8 40.616,26.944 41.6,27.494 41.745,27.494 
		41.6,26.8 41.889,26.51 	"/>
	<polygon fill="#FFFBF4" points="122.291,38.373 122.291,38.518 122.87,38.373 122.435,37.938 	"/>
	<polygon fill="#FFFBF4" points="123.159,27.639 123.014,27.639 123.014,27.928 123.448,27.928 	"/>
	<path fill="#FFFBF4" d="M99.839,21.476h0.434l0.435-0.723h-0.145C100.312,20.753,100.071,20.994,99.839,21.476z"/>
	<polygon fill="#FFFBF4" points="120.815,27.205 120.959,27.35 121.539,27.205 121.539,26.916 120.815,27.06 	"/>
	<polygon fill="#FFFBF4" points="102.183,23.559 102.183,23.27 101.894,23.27 101.749,23.704 101.749,23.849 101.894,23.849 	"/>
	<polygon fill="#FFFBF4" points="100.418,29.143 100.563,29.143 100.852,28.854 100.418,28.854 	"/>
	<polygon fill="#FFFBF4" points="102.039,25.324 101.894,25.324 101.604,25.613 102.039,25.613 	"/>
	<polygon fill="#FFFBF4" points="127.123,17.05 126.977,17.05 126.688,17.339 127.123,17.339 	"/>
	<polygon fill="#FFFBF4" points="125.965,39.27 125.965,39.414 126.543,39.703 126.833,39.703 126.254,39.27 	"/>
	<path fill="#FFFBF4" d="M127.295,35.74h-0.318v0.145h0.146l0.896-0.434v-0.145h-0.435C127.393,35.306,127.295,35.45,127.295,35.74z
		"/>
	<polygon fill="#FFFBF4" points="127.439,31.92 127.439,32.065 127.585,32.065 128.309,31.92 128.309,31.776 128.164,31.776 	"/>
	<rect x="99.087" y="21.476" fill="#FFFBF4" width="0.607" height="0.174"/>
	<polygon fill="#FFFBF4" points="123.448,41.034 123.592,41.18 123.911,40.891 123.448,40.891 	"/>
	<rect x="123.592" y="38.835" fill="#FFFBF4" width="0.752" height="0.289"/>
	<polygon fill="#FFFBF4" points="124.634,34.698 124.634,34.12 124.344,34.409 	"/>
	<polygon fill="#FFFBF4" points="125.531,42.076 125.82,42.076 125.82,41.757 125.531,41.468 	"/>
	<path fill="#FFFBF4" d="M86.878,22.286v-0.289h-0.29c0,0.444-0.491,0.685-1.476,0.723v0.752h0.146
		c0.385-0.405,0.78-0.608,1.186-0.608C86.444,22.479,86.588,22.286,86.878,22.286z"/>
	<polygon fill="#FFFBF4" points="83.956,23.617 83.956,23.762 84.535,23.762 84.535,23.617 84.1,23.473 	"/>
	<polygon fill="#FFFBF4" points="97.033,20.174 97.033,20.319 97.641,20.463 97.786,20.463 97.786,20.319 97.496,20.03 	"/>
	<polygon fill="#FFFBF4" points="107.68,35.363 107.825,35.363 107.825,35.074 107.391,35.074 	"/>
	<path fill="#FFFBF4" d="M84.1,21.997c-0.289,0-0.434-0.096-0.434-0.29H82.48c0.386,0.425,0.579,0.81,0.579,1.157h0.145
		c0.366-0.385,0.665-0.579,0.896-0.579V21.997z"/>
	<rect x="86.878" y="23.183" fill="#FFFBF4" width="0.896" height="0.29"/>
	<polygon fill="#FFFBF4" points="82.48,26.713 82.77,27.002 82.915,27.002 82.77,26.857 82.77,26.713 82.915,26.539 82.915,26.395 
		82.48,26.395 	"/>
	<path fill="#FFFBF4" d="M85.721,24.63h0.578l0.289-0.29v-0.145C86.01,24.292,85.721,24.437,85.721,24.63z"/>
	<rect x="95.731" y="19.133" fill="#FFFBF4" width="0.435" height="0.289"/>
	<path fill="#FFFBF4" d="M87.486,20.232v0.434h0.145c0.289-0.096,0.434-0.385,0.434-0.868L87.63,19.48L87.486,20.232z"/>
	<polygon fill="#FFFBF4" points="97.496,21.042 97.786,20.753 97.786,20.608 97.496,20.608 	"/>
	<path fill="#FFFBF4" d="M93.648,15.024v-0.463l0.752,0.174h0.29l0.867-0.608l-0.145-0.145v-0.145c0-0.25,0.203-0.395,0.607-0.434
		V13.26H94.4c-0.887-0.27-1.33-0.569-1.33-0.897h-0.29v1.186c-0.404,0.039-0.607,0.184-0.607,0.434v0.145h0.897
		C93.07,14.726,93.262,15.024,93.648,15.024z M94.979,13.549v0.579l-0.289,0.29h-0.145l-0.29-0.29L94.979,13.549z"/>
	<polygon fill="#FFFBF4" points="89.106,22.865 89.106,23.01 89.395,23.328 89.54,23.328 89.395,22.865 	"/>
	<polygon fill="#FFFBF4" points="93.359,11.206 93.359,11.032 92.924,10.598 92.78,10.743 92.78,11.206 93.07,11.495 	"/>
	<polygon fill="#FFFBF4" points="87.023,3.683 87.341,3.973 87.341,3.828 87.023,3.539 	"/>
	<polygon fill="#FFFBF4" points="123.361,4.406 123.042,4.696 123.042,4.84 123.361,4.551 	"/>
	<path fill="#FFFBF4" d="M114.971,13.751v0.145l-0.146,0.145l0.868,0.608h0.289l0.753-0.174v0.463c0.386,0,0.578-0.299,0.578-0.897
		h0.897v-0.145c-0.348-0.019-0.724-0.048-1.129-0.087l-0.55-0.289h-0.289c0.366-0.27,0.279-0.386-0.261-0.347h-1.62v0.145
		C114.768,13.356,114.971,13.501,114.971,13.751z M115.405,13.462l0.724,0.579l-0.29,0.29h-0.145l-0.289-0.29V13.462z"/>
	<path fill="#FFFBF4" d="M119.802,16.413h-0.434l-0.203,0.203l0.724,0.116C119.832,16.655,119.802,16.548,119.802,16.413z"/>
	<rect x="114.218" y="19.046" fill="#FFFBF4" width="0.435" height="0.29"/>
	<polygon fill="#FFFBF4" points="117.893,16.558 116.128,16.095 115.26,16.095 115.26,15.806 115.173,15.806 115.347,16.529 
		116.214,16.529 116.967,16.384 117.112,16.992 117.835,16.847 118.587,16.847 118.587,16.587 117.893,16.413 	"/>
	<polygon fill="#FFFBF4" points="108.693,27.292 108.693,27.581 109.126,27.581 108.837,27.292 	"/>
	<polygon fill="#FFFBF4" points="112.598,20.232 112.598,20.377 112.743,20.377 113.351,20.232 113.351,20.087 112.887,19.943 	"/>
	<path fill="#FFFBF4" d="M114.566,16.037h0.145l0.347-0.231h-0.549C114.546,15.863,114.566,15.941,114.566,16.037z"/>
	<polygon fill="#FFFBF4" points="118.443,10.771 118.443,10.945 118.732,11.234 119.021,10.945 119.021,10.482 118.876,10.337 	"/>
	<polygon fill="#FFFBF4" points="110.226,23.993 110.226,24.283 110.515,24.572 110.66,24.572 110.66,24.427 110.515,23.993 	"/>
	<polygon fill="#FFFBF4" points="112.598,20.666 112.887,20.956 112.887,20.521 112.598,20.521 	"/>
	<path fill="#FFFBF4" d="M109.821,20.666h-0.145l0.434,0.724h0.435C110.313,20.908,110.072,20.666,109.821,20.666z"/>
	<rect x="110.689" y="21.39" fill="#FFFBF4" width="0.607" height="0.173"/>
	<polygon fill="#FFFBF4" points="148.357,14.127 148.938,13.838 148.938,13.693 148.792,13.693 148.357,13.838 	"/>
	<path fill="#FFFBF4" d="M149.082,10.453v-0.434h-0.289l-0.145-0.145l-0.146,0.145c0.135,0.386,0.279,0.579,0.436,0.579
		L149.082,10.453z"/>
	<polygon fill="#FFFBF4" points="149.227,5.882 149.227,5.303 148.792,5.303 149.082,5.882 	"/>
	<polygon fill="#FFFBF4" points="148.938,11.929 149.082,12.073 149.66,12.073 149.979,10.887 149.805,10.887 149.082,10.743 	"/>
	<polygon fill="#FFFBF4" points="144.077,8.544 144.366,8.833 144.654,8.833 144.51,8.399 	"/>
	<path fill="#FFFBF4" d="M144.829,4.725l-0.752,0.145l-0.435-0.434l-0.146,0.145v0.145l0.579,0.579
		c0.289-0.192,0.684-0.289,1.186-0.289C145.262,4.821,145.118,4.725,144.829,4.725z"/>
	<polygon fill="#FFFBF4" points="144.366,2.96 143.787,2.96 143.787,3.249 144.366,3.104 	"/>
	<polygon fill="#FFFBF4" points="143.498,3.539 143.208,3.249 143.208,3.828 143.498,3.828 	"/>
	<path fill="#FFFBF4" d="M146.738,3.828c0,0.193-0.154,0.29-0.463,0.29v0.318h0.463c0-0.212,0.145-0.318,0.435-0.318l-0.29-0.29
		H146.738z"/>
	<rect x="145.262" y="40.629" fill="#FFFBF4" width="0.579" height="0.579"/>
	<polygon fill="#FFFBF4" points="152.033,14.562 152.033,14.735 151.889,14.88 151.889,15.024 152.178,15.024 152.466,14.127 
		151.889,14.417 	"/>
	<path fill="#FFFBF4" d="M150.268,14.417h0.146c0.135,0,0.278-0.193,0.435-0.579h-0.725L150.268,14.417z"/>
	<path fill="#FFFBF4" d="M144.221,37.244l-0.145,0.579c0.501,0,0.752,0.192,0.752,0.579h0.145v-0.435l-0.145-0.723L144.221,37.244
		L144.221,37.244z"/>
	<path fill="#FFFBF4" d="M152.755,10.019l0.146,0.145h0.146l0.146-0.145V9.875c-0.213-0.598-0.6-0.945-1.157-1.042h-0.146v0.145
		C152.158,8.978,152.447,9.325,152.755,10.019z"/>
	<path fill="#FFFBF4" d="M150.413,8.399c-0.155-0.385-0.3-0.579-0.435-0.579v0.724h0.435V8.399z"/>
	<path fill="#FFFBF4" d="M151.425,12.218l1.765-0.434c-0.443-0.887-1.031-1.331-1.765-1.331l0.318,0.434l-0.464,1.331H151.425z"/>
	<polygon fill="#FFFBF4" points="157.327,33.251 157.471,33.396 157.906,33.396 157.906,32.962 157.617,32.962 	"/>
	<polygon fill="#FFFBF4" points="142.167,38.546 142.167,38.689 142.311,38.864 142.311,39.009 142.167,39.152 142.311,39.152 
		142.457,39.009 143.208,39.152 143.498,39.152 143.498,38.546 142.746,38.4 	"/>
	<polygon fill="#FFFBF4" points="152.033,37.244 152.033,37.389 152.322,37.678 152.466,37.678 152.466,37.389 152.322,37.244 	"/>
	<path fill="#FFFBF4" d="M156.43,25.035v-0.318l-0.145,0.145h-0.145l-0.146-0.145l-0.146,0.145h-0.146
		c-0.192,0-0.289-0.145-0.289-0.434h-2.228c-0.193,0-0.338-0.443-0.436-1.331l0.896-0.289l0.146,0.145h0.435v-0.145
		c-0.367,0-0.763-0.145-1.187-0.434c-0.771,0.54-1.157,0.984-1.157,1.331l-0.318,1.013c0.502,0,0.752,0.299,0.752,0.896h0.435
		c0-0.501,0.097-0.752,0.29-0.752l0.145,0.173l1.187-0.318h0.146c0.192,0,0.289,0.154,0.289,0.463
		c0.154,0.193,0.453,0.289,0.896,0.289v0.29c-0.693,0.714-1.041,1.302-1.041,1.765l0.434,0.434v0.145
		c-0.23,0-0.473,0.155-0.724,0.463h-0.578v1.157l-1.042,0.29l-0.289-0.29l-0.289,0.897l0.145,0.579l-0.434,0.434l0.434,0.752v0.29
		c0,0.193-0.396,0.338-1.187,0.434l-0.146-0.145l-0.145,0.145v0.145c0.252,0,0.396,0.203,0.434,0.607l-0.289,0.29
		c0.599,0,0.898,0.241,0.898,0.723c0,0.231,0.434,0.482,1.301,0.752c0.039-0.501,0.146-0.752,0.318-0.752l-0.174-0.145v-0.145
		l0.174-0.145v-0.145l0.723,0.145h0.146l-1.187-0.723l-0.145,0.145h-0.145l-0.146-0.145v-0.173l0.29-0.724l2.054-0.145v-0.145
		l-0.289-0.434l-0.724,0.146l-0.752-0.289v-0.608l0.174-0.145l-0.174-0.146v-0.579l0.463-0.463h1.013l-0.145,0.752l0.145,0.145
		h0.289l0.174-0.724l-0.174-1.042l0.174,0.145h0.146l0.289-0.289v-0.145l-0.146-0.145v-0.145c0.58-0.25,0.868-0.453,0.868-0.607
		l-0.434-0.723c0.231-0.598,0.424-0.897,0.577-0.897l0.146,0.145v-0.145l-0.577-0.868L156.43,25.035z"/>
	<path fill="#FFFBF4" d="M153.652,35.913l-0.317,0.579v0.145c0.501-0.115,0.752-0.26,0.752-0.434l-0.289-0.29H153.652z"/>
	<path fill="#FFFBF4" d="M156.141,32.962l0.289-0.434v-0.145h-1.013v0.145l0.435,1.013l-0.146,0.752h0.29
		c0-0.192,0.191-0.289,0.578-0.289v-0.29C156.286,33.714,156.141,33.464,156.141,32.962z"/>
	<polygon fill="#FFFBF4" points="156.893,28.854 157.182,29.143 157.471,28.854 	"/>
	<polygon fill="#FFFBF4" points="157.327,31.776 157.617,32.094 157.617,31.631 157.327,31.631 	"/>
	<polygon fill="#FFFBF4" points="154.666,25.613 154.666,26.047 155.1,25.903 155.1,25.758 	"/>
	<path fill="#FFFBF4" d="M148.357,9.73c0-0.405,0.291-0.656,0.869-0.752l-0.146-0.434h-0.724l-0.463-0.29h-0.146v0.145l0.435,1.331
		H148.357z"/>
	<polygon fill="#FFFBF4" points="148.792,19.133 148.186,18.988 148.186,19.422 148.502,19.422 	"/>
	<path fill="#FFFBF4" d="M148.502,22.373h0.146l-0.463-1.042l-0.291,0.318C148.087,22.094,148.291,22.334,148.502,22.373z"/>
	<polygon fill="#FFFBF4" points="148.502,7.068 148.502,6.779 148.04,6.779 147.316,6.923 147.316,7.213 148.04,7.068 	"/>
	<polygon fill="#FFFBF4" points="149.371,21.187 149.516,21.187 149.805,20.897 149.66,20.897 	"/>
	<polygon fill="#FFFBF4" points="152.322,28.564 152.033,28.102 152.611,27.957 152.611,27.667 151.744,27.667 151.425,28.246 
		151.57,28.391 151.425,28.564 	"/>
	<rect x="148.648" y="25.324" fill="#FFFBF4" width="0.434" height="0.289"/>
	<polygon fill="#FFFBF4" points="147.895,25.035 147.895,25.324 148.357,25.324 148.648,25.035 	"/>
	<path fill="#FFFBF4" d="M150.557,17.657h0.723l0.465,0.29h0.289c0-0.328-0.686-0.617-2.055-0.868h-0.318l-0.578,0.289v0.29
		l0.289,0.29h1.188v-0.291H150.557z"/>
	<polygon fill="#FFFBF4" points="138.493,2.526 139.215,2.353 138.493,1.774 	"/>
	<polygon fill="#FFFBF4" points="135.975,3.973 135.975,4.117 136.293,4.436 136.729,4.291 136.729,4.117 136.148,3.973 	"/>
	<polygon fill="#FFFBF4" points="141.443,23.559 141.125,23.849 142.021,23.849 141.732,23.559 	"/>
	<path fill="#FFFBF4" d="M144.973,22.373h-0.145v0.29c0.23,0,0.473,0.145,0.725,0.434h0.145
		C145.639,22.846,145.396,22.604,144.973,22.373z"/>
	<polygon fill="#FFFBF4" points="146.738,16.789 146.738,17.079 147.027,17.368 147.172,17.368 147.027,16.789 	"/>
	<path fill="#FFFBF4" d="M144.829,18.843h0.146v-0.289c-0.213,0-0.318-0.203-0.318-0.607l-0.578-0.146l-0.146,0.146v0.318
		C144.529,18.38,144.829,18.574,144.829,18.843z"/>
	<polygon fill="#FFFBF4" points="153.941,12.507 153.941,11.784 153.652,11.784 153.797,12.507 	"/>
	<polygon fill="#FFFBF4" points="141.588,41.786 141.732,42.22 142.021,42.22 142.167,41.643 141.588,41.643 	"/>
	<rect x="155.417" y="9.123" fill="#FFFBF4" width="0.724" height="0.318"/>
	<polygon fill="#FFFBF4" points="155.563,11.929 155.273,12.218 155.273,12.652 155.563,12.652 	"/>
	<polygon fill="#FFFBF4" points="154.086,10.743 153.797,10.453 153.797,10.598 154.086,10.887 	"/>
	<polygon fill="#FFFBF4" points="145.118,20.319 145.118,20.174 144.51,20.03 144.221,20.608 144.829,20.608 	"/>
	<path fill="#FFFBF4" d="M139.505,36.781h-0.29c0,0.212-0.289,0.56-0.867,1.042c0.192,0,0.578,0.347,1.157,1.042
		c0.058-0.405,0.212-0.607,0.463-0.607l-0.146-0.145l0.146-0.723v-0.146C139.66,37.244,139.505,37.09,139.505,36.781z"/>
	<path fill="#FFFBF4" d="M141.443,40.773v0.58h0.146l0.146-0.146h0.145l0.145,0.146v-0.146
		C142.021,41.055,141.829,40.909,141.443,40.773z"/>
	<polygon fill="#FFFBF4" points="139.361,39.732 139.361,40.166 139.678,39.877 139.505,39.732 	"/>
	<path fill="#FFFBF4" d="M141.877,36.781h0.145c-0.097-0.387-0.396-0.579-0.896-0.579h-0.435v0.146
		C140.75,36.636,141.145,36.781,141.877,36.781z"/>
	<polygon fill="#FFFBF4" points="140.546,42.076 140.402,42.684 141.588,42.684 141.588,42.395 141.27,42.076 	"/>
	<path fill="#FFFBF4" d="M143.064,36.636h0.145l-0.318-0.723c-0.443,0.192-0.685,0.386-0.724,0.579l0.724,0.29L143.064,36.636z"/>
	<polygon fill="#FFFBF4" points="173.182,34.727 173.327,34.12 172.893,34.12 172.719,34.727 	"/>
	<polygon fill="#FFFBF4" points="173.471,27.205 172.575,27.35 172.575,27.639 173.471,27.639 	"/>
	<polygon fill="#FFFBF4" points="166.846,36.492 167.135,36.173 166.702,36.173 166.383,36.492 	"/>
	<path fill="#FFFBF4" d="M165.805,32.21c0,0.386-0.098,0.579-0.289,0.579l-0.463-0.145l-0.146,0.145v0.463
		c0.309,0,0.463,0.145,0.463,0.434h0.146c0-0.501,0.24-0.752,0.723-0.752h0.464C166.508,32.586,166.209,32.345,165.805,32.21z"/>
	<polygon fill="#FFFBF4" points="166.383,41.786 166.702,42.22 167.135,42.076 166.991,41.497 	"/>
	<polygon fill="#FFFBF4" points="172.893,23.067 173.471,22.923 173.327,22.17 173.182,22.17 172.893,22.923 	"/>
	<polygon fill="#FFFBF4" points="168.755,30.879 168.9,30.734 169.044,30.734 168.9,30.3 168.322,30.879 	"/>
	<path fill="#FFFBF4" d="M167.714,29.982h0.146v-0.868c0.191,0,0.289-0.192,0.289-0.579l0.174-0.174h0.145l0.578,0.174v-0.174
		c0-0.192-0.299-0.385-0.896-0.579l-0.145-0.723v-0.174h0.318V26.74c-0.309,0-0.463-0.096-0.463-0.289h-0.291l-0.145,0.897
		l0.436,0.434v0.29l-0.725,0.145h-0.434l-0.318,0.752v0.146l0.318,0.289h0.145l0.723-0.145L167.714,29.982z"/>
	<rect x="165.516" y="23.067" fill="#FFFBF4" width="0.289" height="0.723"/>
	<polygon fill="#FFFBF4" points="165.516,7.444 165.516,7.3 165.227,7.01 165.053,7.01 165.053,7.3 165.371,7.589 	"/>
	<polygon fill="#FFFBF4" points="167.568,24.398 167.568,23.791 167.279,23.791 167.279,24.109 	"/>
	<path fill="#FFFBF4" d="M165.805,24.977c0-0.25-0.396-0.443-1.187-0.579l0.752,0.579H165.805z"/>
	<polygon fill="#FFFBF4" points="167.568,2.266 167.279,1.976 166.991,2.439 167.135,2.439 	"/>
	<polygon fill="#FFFBF4" points="173.038,19.538 172.719,18.641 172.575,18.641 172.575,19.972 172.893,19.972 	"/>
	<polygon fill="#FFFBF4" points="169.334,3.741 169.334,3.596 169.044,3.307 168.9,3.307 168.9,3.596 169.044,3.741 	"/>
	<polygon fill="#FFFBF4" points="168.611,25.122 168.466,24.688 168.148,24.688 168.148,25.266 168.611,25.266 	"/>
	<path fill="#FFFBF4" d="M168.003,39.443h0.317c0-0.213,0.146-0.318,0.435-0.318v-0.289l-0.752,0.463V39.443z"/>
	<path fill="#FFFBF4" d="M171.996,28.825v-0.289h-0.145l-0.896,0.723l-0.436-0.145v0.579h0.436
		C170.955,29.307,171.301,29.018,171.996,28.825z"/>
	<path fill="#FFFBF4" d="M169.797,30.879v0.145c0,0.154,0.337,0.405,1.014,0.752v-0.318c-0.291,0-0.436-0.145-0.436-0.434
		l-0.145-0.145H169.797z"/>
	<path fill="#FFFBF4" d="M170.955,34.264v0.145h0.145c0.039-0.386,0.435-0.579,1.188-0.579v-0.579
		C171.398,33.541,170.955,33.878,170.955,34.264z"/>
	<path fill="#FFFBF4" d="M169.624,38.835v0.146l0.317,0.463v0.289c0,0.289-0.203,0.434-0.606,0.434v0.145h0.752l0.146-0.724
		C170.038,39.125,169.835,38.874,169.624,38.835z"/>
	<polygon fill="#FFFBF4" points="168.003,41.208 168.466,41.208 168.466,40.918 167.714,40.918 	"/>
	<path fill="#FFFBF4" d="M166.094,26.453h-0.146c-0.327,0.289-0.627,0.434-0.895,0.434v0.174c0.309,0,0.606,0.193,0.895,0.579h0.146
		l0.434-0.434L166.094,26.453z"/>
	<path fill="#FFFBF4" d="M171.563,30.59c0.385-0.154,0.578-0.299,0.578-0.434l-0.578,0.145V30.59z"/>
	<polygon fill="#FFFBF4" points="166.846,39.732 166.991,39.732 167.279,39.443 166.846,39.443 	"/>
	<path fill="#FFFBF4" d="M167.859,32.21v0.145c0.404,0,0.606,0.193,0.606,0.579h0.289c0-0.443,0.241-0.829,0.724-1.157
		C168.398,31.873,167.859,32.017,167.859,32.21z"/>
	<path fill="#FFFBF4" d="M169.941,23.791l0.289,0.318c0.869-0.289,1.36-0.588,1.477-0.897l-0.145-0.145
		C171.08,23.55,170.54,23.791,169.941,23.791z"/>
	<polygon fill="#FFFBF4" points="171.417,7.01 171.707,7.01 171.707,6.692 171.1,6.692 	"/>
	<path fill="#FFFBF4" d="M168.003,35.74v-0.146h-0.146v0.29c-0.289,0-0.435,0.097-0.435,0.289h0.435L168.003,35.74z"/>
	<polygon fill="#FFFBF4" points="171.1,32.21 171.1,32.065 170.665,32.21 170.665,32.354 171.273,32.354 	"/>
	<polygon fill="#FFFBF4" points="167.279,33.541 166.991,33.83 167.279,33.83 167.568,33.541 	"/>
	<polygon fill="#FFFBF4" points="170.811,6.692 170.955,6.692 170.811,5.969 170.811,5.68 171.1,5.217 169.941,5.217 168.9,5.68 
		168.9,5.824 170.665,6.547 	"/>
	<path fill="#FFFBF4" d="M169.479,26.019c-0.153,0-0.299,0.241-0.435,0.723h-0.289v0.145l1.476,1.042V27.35
		C169.729,27.002,169.479,26.559,169.479,26.019z"/>
	<rect x="170.955" y="41.786" fill="#FFFBF4" width="0.463" height="0.29"/>
	<polygon fill="#FFFBF4" points="201.333,19.711 201.188,19.885 201.043,19.885 200.609,19.711 200.609,20.03 201.333,20.03 	"/>
	<polygon fill="#FFFBF4" points="200.031,24.283 200.031,24.138 199.423,23.993 199.423,24.427 199.568,24.427 	"/>
	<rect x="183.54" y="6.923" fill="#FFFBF4" width="0.289" height="0.434"/>
	<polygon fill="#FFFBF4" points="196.328,19.277 196.646,19.277 196.646,19.133 196.328,18.843 	"/>
	<path fill="#FFFBF4" d="M29.796,36.492h-0.058l-0.724,0.434v0.752l0.781-0.896v6.365h-8.188v-0.146l0.173-0.146v-0.145
		l-0.173-0.145h-0.145l-0.579,0.578h-1.331v-0.289l0.145,0.146h0.145v-0.435c-0.733,0-1.321-0.25-1.765-0.752v-0.724h-0.752
		c0,0.29-0.242,0.435-0.724,0.435v0.289c0,0.154,0.395,0.357,1.187,0.607l0.145,0.723H1.356l-0.289-0.289v-0.289l0.434-0.607v-0.145
		c-0.29,0-0.434-0.098-0.434-0.291v-0.606c0-0.192,0.145-0.29,0.434-0.29v-0.868c-0.29,0-0.434-0.598-0.434-1.794v-0.723
		l0.145-0.608l-0.145-0.579V34.12l0.434-0.434h0.318c1.659,0.598,2.488,1.09,2.488,1.476H4.48l0.29-0.29H4.307L4.48,34.12H4.018
		l-0.723-0.145v-0.289h14.784c0.192,0,0.29,0.444,0.29,1.331l0.434,0.29l0.463-0.29h0.868l0.463,0.29h0.434v-0.145
		c-0.251,0-0.444-0.241-0.579-0.724l-0.174,0.145l-1.476-0.318v-0.29l0.318-0.289h8.13v0.752h0.29l0.289-0.318l-0.145-0.434h2.112
		V36.492z M13.71,19.046l0.521-0.26c0-0.386-0.145-0.588-0.434-0.607c0.038-0.405,0.318-0.829,0.839-1.273
		c0.096-0.887,0.666-1.34,1.707-1.359L16.169,15.4c0.039-0.25,0.28-0.376,0.724-0.376l-0.29-0.492l0.029-0.29
		c0.598-0.771,1.206-1.456,1.823-2.054h11.081c-0.116,0.135-0.231,0.261-0.347,0.376c-1.428,1.967-2.382,2.932-2.864,2.893
		c-0.058,0.579-0.26,0.858-0.607,0.839l-0.694-0.058l0.029-0.29l-0.492-0.058l-0.029,0.289l-0.868,0.087
		c-0.482,0.463-1.022,0.675-1.62,0.636l-0.029,0.29l0.81,0.203l0.376-0.261l0.666,0.347c0.675,0.058,1.031-0.058,1.07-0.347h0.318
		v0.145l-1.244,1.562c-0.155,0.367-0.608,0.965-1.36,1.794l-0.145-0.145l-0.376-0.029v0.145l0.376,0.029
		c-0.271,0.54-1.987,2.565-5.15,6.076c-1.871,2.238-3.549,4.244-5.034,6.018H1.24l12.036-14.292l0.492,0.029L13.71,18.9
		l-0.174,0.116L13.71,19.046z M29.883,2.034l-0.434,0.607v0.145c0.29,0,0.434,0.097,0.434,0.29v0.607c0,0.193-0.145,0.29-0.434,0.29
		V4.84c0.29,0,0.434,0.598,0.434,1.794v0.723l-0.145,0.607l0.145,0.579v1.938l-0.434,0.434H29.13
		c-1.659-0.598-2.488-1.089-2.488-1.476h-0.174L26.18,9.73h0.463l-0.174,0.752h0.463l0.724,0.145v0.289H12.871
		c-0.193,0-0.29-0.443-0.29-1.331l-0.434-0.29l-0.463,0.29h-0.868l-0.463-0.29H9.92V9.44c0.25,0,0.443,0.242,0.579,0.724
		l0.173-0.145l1.476,0.318v0.29l-0.318,0.289H3.7v-0.752H3.41l-0.289,0.318l0.145,0.434H1.153V8.11h0.058l0.723-0.434V6.923
		L1.153,7.82V1.456h8.188V1.6L9.167,1.745V1.89l0.174,0.145h0.145l0.579-0.579h1.331v0.289L11.251,1.6h-0.145v0.434
		c0.733,0,1.321,0.251,1.765,0.752V3.51h0.752c0-0.29,0.241-0.434,0.724-0.434v-0.29c0-0.154-0.396-0.356-1.187-0.607l-0.145-0.723
		h16.578l0.29,0.289V2.034z M56.095,36.781l0.26-0.262h0.29L56.5,37.215h-0.145l-0.26-0.29V36.781z M56.095,38.199h0.26v1.128
		l-0.26,0.26V38.199z M36.392,28.912l-0.145-0.694h0.145l0.579,0.145v0.116l-0.434,0.434L36.392,28.912L36.392,28.912z
		 M54.388,42.973l-1.128,0.146v-0.146l-0.405-0.55l-0.145,0.146h-0.145v-0.289l0.984-0.435c0.559,0,0.839,0.241,0.839,0.724
		l0.145,0.404H54.388z M54.532,41.584L54.388,41.7v0.145L53.983,41.7c0.116-0.829,0.25-1.244,0.405-1.244h0.145L54.532,41.584
		L54.532,41.584z M54.532,8.949L54.128,9.09c0.001-0.286,0.087-0.43,0.26-0.43h0.145L54.532,8.949L54.532,8.949z M54.532,8.226
		l-0.839,0.579V8.95l0.429,0.143l-3.235,1.13l-2.401,1.823l-1.128-0.289c0.192,0.424,0.386,0.656,0.579,0.694
		c0-0.27,0.087-0.405,0.26-0.405v0.26c-1.601,1.929-2.623,4.369-3.067,7.32l-0.145-0.145h-0.434c0,0.193,0.145,0.289,0.434,0.289
		l0.145,0.145v0.289c0,1.119-0.145,1.678-0.434,1.678h-0.145l0.145,0.145v0.29l-0.29,0.26l-0.405-0.145l-0.145,0.145v0.145
		l0.145,0.145h0.145l0.405-0.145c0.347,0.347,0.675,1.804,0.984,4.369l-0.405,0.405h-0.145v0.145h0.26v-0.145
		c0.482,0,0.724,0.424,0.724,1.273l-0.145,0.145c0.212,0.058,0.964,1.235,2.256,3.53c0,0.212,0.984,0.955,2.951,2.228l2.373,0.579
		v0.405l-0.145,0.145v0.145l-0.116-0.145h-0.289v0.434h-0.29V36.09l0.145-0.145V35.8l-0.839-0.145
		c-0.289,0.849-0.81,1.272-1.562,1.272v0.29c0.289,0,0.434,0.183,0.434,0.55v0.145l0.55-0.145l-0.116-0.146v-0.116
		c0.463,0,0.694-0.096,0.694-0.289v-0.29l-0.145-0.405h0.145l0.55-0.145h0.29l0.983,0.26v-0.115
		c0.386,0.135,0.579,0.271,0.579,0.404l-0.145,0.145v0.146h0.145l-0.145,0.146v0.404l0.145,0.146v0.146l-0.145,0.145h-0.145
		l-0.29-0.289c0,0.193-0.145,0.289-0.434,0.289l-0.116,0.693h0.116l0.579-0.145c0,0.193,0.183,0.289,0.55,0.289v0.29l-0.26,0.694
		h-0.145l-0.579-0.291l-0.55,0.435v0.29h0.289v0.55l-0.289,0.289l-0.579,0.146v-0.435h0.289v-0.29L52.16,40.6
		c0.559-0.693,0.839-1.215,0.839-1.563c-0.212,0-0.54,0.376-0.983,1.128l0.145,0.146h-0.145l-0.434-0.291h-0.145l-0.26,0.291
		c0,0.27,0.183,0.404,0.55,0.404l-0.145,0.434l0.145,0.694L51.582,41.7h-0.145v0.145c0.29,0,0.482,0.328,0.579,0.983h-0.29v0.145
		l-2.517-0.55l0.116-0.723l-0.839-0.261l-0.29,0.261c0-0.366-0.135-0.55-0.405-0.55h-0.145c0,0.367-0.183,0.55-0.549,0.55
		c-1.698-0.521-3.713-1.968-6.047-4.341l0.116-0.578l-0.116-0.146h-0.145l-0.29,0.29l-2.112-2.951l0.145-0.434h-0.145
		c-0.347,0-0.955-1.263-1.823-3.791c0-0.848,0.328-1.273,0.983-1.273l-0.145-0.694c0.193,0,0.29,0.145,0.29,0.434l0.145-0.145h0.116
		l0.145,0.145v-0.434h0.434l0.289,0.29l-0.434,0.405l0.145,0.145v0.289l-0.145-0.145h-0.145l-0.145,0.983l0.723,0.145V29.75
		c0.579,0,1.042,0.28,1.389,0.839l-0.145,0.145l0.145,0.145h0.289l-0.289-0.839h0.145l0.434,0.145V30.04l0.405,0.289l0.145-0.145
		h0.29v0.29l0.289-0.29V30.04l-0.145-0.145V29.75l0.145-0.145l-0.145-0.145h-0.145c0,0.386-0.145,0.579-0.434,0.579h-0.145
		c-0.424-0.463-0.752-0.694-0.984-0.694l-0.26,0.26h-0.579c-0.193-0.039-0.376-0.27-0.55-0.694c0-0.463,0.231-0.839,0.694-1.128
		l0.145,0.145v-0.145l0.549,0.29l0.145-0.146v-0.145l-0.145-0.145l0.29-0.55l-0.145-0.145l0.145-0.145h-0.29l-0.116,0.145h-0.145
		l-0.43-0.143v0.145l-0.289,0.29V27.09l-0.839,0.29h-1.273v0.26h-0.694c-0.367,0-0.55-0.704-0.55-2.112l0.695,0.434h0.434v-0.289
		l-0.145-0.694l0.405-0.434h-0.145l-0.549,0.434l-0.29-0.579l0.145-0.116l-0.55-0.29c0.058,0.56,0.145,0.839,0.261,0.839
		l-0.116,0.434c-0.29,0-0.434-1.031-0.434-3.096c0-2.256,0.145-3.385,0.434-3.385l-0.145-0.145v-0.145
		c0.25-2.874,1.466-6.056,3.646-9.547c4.089-4.879,9.056-7.32,14.9-7.32l0.145,0.145v6.452H54.532z M75.074,22.315l-0.145,0.839
		c-0.193,0-0.289-0.192-0.289-0.579h-0.55v0.579l-0.145,0.694l-0.55-0.145l-0.434,0.145l0.145,0.434l0.55-0.29v0.29h0.434
		l0.145-0.145h0.145v0.145l-0.145,0.405h0.694c0,3.742-1.591,7.773-4.773,12.094c-4.147,4.224-8.786,6.336-13.917,6.336v-0.29
		c0.27,0,0.405-0.086,0.405-0.261h-0.55V40.6h0.26v-0.867h0.434l0.434,0.289h0.116l0.579-0.289l-0.839-1.129v-0.549
		c0-1.004,0.376-1.563,1.128-1.679l-0.145-0.146l0.145-0.145v-0.55l-0.723,0.116v-0.405l1.273-0.289v0.145l-0.145,0.145v0.145h0.29
		c0-0.386,0.752-0.955,2.256-1.707c1.119-0.926,1.678-1.534,1.678-1.823h0.983v-0.145l-0.145-0.145v-0.116l-0.145,0.116h-0.26
		v-0.116c0-0.154,0.415-0.482,1.244-0.983V30.04l-0.116-0.694l0.116-0.145h0.29l0.145,0.145l0.145-0.145h0.145
		c0.27,0,0.405,0.135,0.405,0.405h0.145v-0.55h-0.694c-0.193,0-0.29-0.145-0.29-0.434l0.145-0.984h0.145l0.405,0.29h0.145
		l-0.145-0.145c0.058-0.463,0.203-0.694,0.434-0.694V26.8c-0.367,0-0.55-0.096-0.55-0.29v-0.839l0.116-0.145V25.41l0.145,0.116h0.29
		c0-0.174,0.145-0.261,0.434-0.261l0.116-0.723h-0.261v0.29l-0.289,0.289h-0.434v-0.145c0.058-1.042,0.154-1.563,0.29-1.563h0.289
		v-0.116l-0.434-0.723V21.88h0.29v-0.145l0.145,0.145h0.145c0.27,0,0.405-0.145,0.405-0.434l-0.145,0.145
		c-0.656,0-0.984-0.328-0.984-0.983l0.145-0.145l0.984,0.29l-0.145,0.145v0.29l0.145,0.145v0.116h0.145v0.29h1.418l0.549-0.146
		l1.707,0.434c0.405-0.463,0.771-0.694,1.1-0.694l0.289,0.26h0.145v-0.145c-0.29,0-0.434-0.087-0.434-0.26h0.145l-0.405-0.579
		c-0.097,0.251-0.618,0.492-1.563,0.723l-0.26-0.289h-0.29l-0.145,0.145h-0.145l-0.145-0.145v-0.145l0.29-0.839l-0.839,0.289h-0.434
		l-0.145-0.145l-0.145,0.145h-0.116c-0.135-0.192-0.704-0.289-1.707-0.289l-0.405-1.823c0.173,0,0.26-0.192,0.26-0.579l0.723-0.145
		l-1.562-1.389l0.145-0.145v-0.145l-1.678-2.806c-1.389-1.697-3.173-2.874-5.352-3.53c-1.119-0.135-1.678-0.318-1.678-0.55v-7.03
		l0.26-0.29c4.32,0,8.496,1.64,12.528,4.918c2.507,2.643,3.963,4.851,4.369,6.625l-0.29,0.405v0.29l0.29,0.289v-0.868
		c0.25,0,0.53,0.801,0.839,2.401h-0.29v-0.405c-0.193,0-0.289,0.28-0.289,0.839c-0.174,0-0.26,0.231-0.26,0.694l-0.145,0.145h-1.967
		l-0.983-0.839h-0.145l0.145,0.145v0.694l-0.694,0.289h-0.724v-0.289h-0.289v0.405l0.434,0.579h-0.145L68.596,17.8h-0.145v0.694
		l-1.823-0.549v0.289c0,0.271,0.569,0.405,1.707,0.405c0,0.154,0.279,0.347,0.839,0.579l0.405-0.145l0.145,0.145v-0.145l0.145,0.145
		h0.145l0.55-0.145l0.579,0.145l0.29-0.434c-0.29,0-0.434-0.231-0.434-0.694l-0.55,0.145l-0.434-0.145V17.8
		c0-0.521,0.231-0.848,0.694-0.983l0.29,0.694l-0.145,0.146v0.29h0.145c0-0.25,0.328-0.444,0.984-0.579l0.145,0.145v0.434
		c-0.251,0-0.396,0.231-0.434,0.694h0.29v-0.29c0.289,0,0.434-0.183,0.434-0.55l0.116-0.145V17.51h-0.26v-0.145h0.26l0.145,0.145
		h0.145l1.417-0.694l0.29,0.434l-0.145,0.405c0.27,0,0.405,0.521,0.405,1.563l-0.405,0.694l-0.145-0.145h-0.289
		c0,0.251-0.231,0.396-0.694,0.434l-0.145,0.145v0.261l0.984-0.405l-0.145,0.145v0.261h0.694l0.289,0.289l-0.145,0.145v0.145
		l0.29,0.26l-0.145,0.145L75.074,22.315z M69.577,18.352v0.145l-0.261,0.29v-0.145L69.577,18.352z M81.004,4.493h0.29l5.005,8.535
		c-0.193,0-0.289,0.145-0.289,0.434c-0.599,0-0.897,0.338-0.897,1.013l-1.302-0.145v0.145c0,0.231-0.54,0.482-1.62,0.752
		l-0.289,0.289h-0.174l-0.578-0.723h-0.146V4.493L81.004,4.493z M81.004,17.426l0.146-0.145l-0.146-0.146v-0.723h0.146l0.289,0.29
		l-0.145,0.145v0.145l1.041,0.145c0-0.192,0.338-0.337,1.013-0.434l-0.145-0.752H84.1v-0.145l-0.289-0.723h0.145l0.145-0.145
		c0.444,0.193,0.685,0.386,0.724,0.579l-0.289,0.752c0.192,0,0.289-0.154,0.289-0.463h0.897l0.434-0.29h0.145l0.289,0.29
		l-0.289,0.463v0.145h0.289c0.502-0.212,0.753-0.415,0.753-0.607h0.434c0.579,0.405,0.868,0.897,0.868,1.476v0.145
		c-1.081,0.097-1.717,0.241-1.91,0.434h-1.62c0,0.212-0.241,0.318-0.723,0.318l-0.435,0.434l-0.752-0.145H82.77l-1.042,0.579h-0.434
		l-0.29-0.289V17.426z M86.444,15.083l0.435-0.434h0.317l0.435,0.579l-0.435,0.289h-0.317L86.444,15.083z M82.335,43.03
		l-0.607-0.146L81.15,43.03l-0.146-0.146V20.521c0.232-0.598,0.627-0.897,1.187-0.897c0.463,0,0.801-0.096,1.013-0.289h0.289
		c0.888,0.405,1.331,0.704,1.331,0.896l0.435-0.145c0.404,0.097,0.607,0.434,0.607,1.013h0.145L86.3,20.81v-0.29
		c-0.386-0.366-0.578-0.666-0.578-0.897h-0.753l-0.723-0.145v-0.29l0.434-0.434h1.909v0.289h0.607v-0.289l-0.173-0.145v-0.145
		l0.896-0.434v0.724h0.579l0.145-0.145h0.174c0.096,0.888,0.385,1.331,0.867,1.331l0.145-0.145l0.29,0.868v1.042H89.54v0.29h0.579
		l0.058,21.032h-7.842V43.03z M89.106,18.467h0.289c0.386,0.155,0.579,0.492,0.579,1.013h-0.146
		C89.347,19.287,89.106,18.95,89.106,18.467z M90.263,16.934h-0.145l-1.157-2.054v-0.145h0.289c0,0.289,0.289,0.434,0.868,0.434
		l0.607-0.289l0.289,0.289l0.724-0.145v-0.289c-0.521,0-0.965-0.25-1.331-0.752l-0.724-0.145v-0.29H89.25v0.29h-0.607
		c-0.289,0-0.435-0.29-0.435-0.868c-0.424,0-1.157-1.032-2.198-3.096c-2.951-4.706-4.571-7.455-4.86-8.246h8.824
		c1.465,2.083,2.893,4.484,4.281,7.204h-0.318c0.965,0.926,1.852,2.151,2.662,3.674v0.29L96.31,13.26
		c0.386,0.039,0.578,0.184,0.578,0.434l-0.145,0.145c0.887,0.097,1.331,0.588,1.331,1.476l-0.289,0.289h-1.62v0.29h-1.042v0.289
		h-0.868l-1.765,0.463V16.5l-1.187,0.289L91.015,16.5h-0.434C90.582,16.789,90.475,16.934,90.263,16.934z M104.266,40.282
		c-1.678-2.7-4.427-7.3-8.246-13.8c-2.392-3.742-3.674-5.892-3.848-6.452h0.318v-0.146h-0.318l-0.145,0.146
		c-0.676-1.062-1.013-1.755-1.013-2.083h1.157v0.318h0.752l0.724,0.145l0.145-0.608l0.753,0.146h0.867l0.897-0.579l0.434,0.29h0.145
		c0-0.482,0.443-0.819,1.331-1.013l0.434,0.145V16.5h0.146c0.694,0.656,1.041,1.244,1.041,1.765c-0.251,0-0.396,0.193-0.434,0.579
		l0.434,0.29h0.145l-0.145-0.145v-0.434h0.434l3.993,6.712L104.266,40.282L104.266,40.282z M129.061,30.011
		c0,0.193-0.203,0.289-0.607,0.289v0.145c0.404,0,0.607,0.097,0.607,0.289v10.444c0,0.193-0.25,0.29-0.752,0.29v0.289h0.752v1.042
		l-0.317,0.29h-4.832l-1.041-0.146l-0.579,0.146h-1.331l-0.145-0.146l-0.145,0.146h-0.896l-0.146-0.146l0.146-3.963v-5.756
		c0.481-0.579,1.021-0.868,1.62-0.868l-0.29-0.434V31.17l-1.186-0.29v-1.331l0.289-0.29l-0.289-0.434v-4.137l0.145-4.397
		c0-0.694,1.379-3.192,4.137-7.493l0.145,0.145l0.29-0.29h-0.29l4.398-7.812h0.317V30.011z M119.774,32.499v-0.723l0.289-0.318
		h0.463l0.289,0.318v0.29c-0.193,0.347-0.492,0.588-0.896,0.723v-0.145L119.774,32.499z M124.374,9.788
		c-1.041,2.064-1.774,3.096-2.199,3.096c0,0.579-0.145,0.868-0.434,0.868l-0.607,0.723v-0.289H120.7v0.289l-0.724,0.145
		c-0.367,0.019-0.811,0.029-1.331,0.029v0.289l0.724,0.145l0.289-0.29l0.607,0.29c0.579,0,0.868-0.145,0.868-0.434h0.289v0.145
		l-1.157,2.054c-0.058,0.386-0.694,1.417-1.909,3.096l-0.145-0.145h-0.318v0.145h0.318c-0.174,0.56-1.457,2.71-3.849,6.452
		c-3.818,6.5-6.567,11.101-8.245,13.801V25.18l3.992-6.712h0.435v0.434l-0.145,0.145h0.145l0.434-0.289
		c-0.039-0.386-0.184-0.579-0.434-0.579c0-0.521,0.55-1.379,1.648-2.575h0.146v0.29l0.434-0.145
		c0.675-0.154,1.157-0.192,1.446-0.116v-0.116h-1.62l-0.289-0.289c0-0.887,0.443-1.379,1.331-1.476l-0.145-0.145
		c0-0.25,0.192-0.395,0.578-0.434l-0.289-0.463v-0.29c0.81-1.523,1.697-2.749,2.662-3.674h-0.318
		c1.389-2.719,2.815-5.121,4.281-7.204h8.823C128.945,2.333,127.325,5.082,124.374,9.788z M156.893,36.926l-0.606,0.607h-0.289
		l-0.29-0.289v-0.608l0.29-0.288h0.146l0.752,0.288v0.29H156.893z M158.484,30.908c-0.154,2.353-0.491,3.529-1.014,3.529
		l0.291,0.579l-0.291,0.608l-1.041-0.145h-0.145l-0.436,0.29c-0.5-0.135-0.752-0.29-0.752-0.463v-0.145l0.174-0.145v-0.145h-0.174
		l-0.724,0.29v0.318c0,0.251,0.349,0.444,1.042,0.58v0.434l-0.463,0.434h-0.725l-0.289,0.318v0.289c0.328,0,0.916,0.386,1.766,1.156
		c-1.563,1.775-2.835,2.662-3.818,2.662c0,0.154-0.742,0.502-2.229,1.043c-0.213,0-0.501-0.3-0.867-0.897l-0.436,0.146v-0.146
		l-0.172-0.435l0.172-0.434h-0.752l-0.434-0.318v0.146c0.637,0.791,0.975,1.582,1.014,2.372l-2.488,0.145h-0.146
		c-0.192,0-0.29-0.299-0.29-0.896c-0.289,0-0.434-0.241-0.434-0.723h-0.174v0.867c-0.578,0.077-0.868,0.185-0.868,0.318l0.146,0.434
		l-0.146,0.146h-8.245l-0.289-0.29v-7.204l0.289-0.318h5.902l0.578,0.463h0.145l-0.145-0.145v-0.145l0.867-0.318h0.463
		c0,0.309,0.098,0.463,0.289,0.463h0.289c0-0.405,0.348-0.608,1.043-0.608l2.198-0.868l0.146,1.013v0.463h0.289
		c0,0.25,0.347,0.54,1.041,0.868h0.867v-0.579c-0.289,0-0.434-0.096-0.434-0.289v-0.463l0.145-0.724h0.289
		c0.193,0,0.291,0.193,0.291,0.579h0.172l0.146-0.723l-1.62-0.897l-0.316-0.289v-0.434c0-0.366,0.201-0.858,0.606-1.476v-1.765
		l0.146-0.145l-0.897-2.199l0.608,0.29l0.145-0.145V26.8h-1.042l-0.578-0.608l0.146-0.145v-0.145h-0.146l-0.435,0.145
		c-0.443-0.675-2.112-1.013-5.006-1.013h-6.19l-0.289-0.318v-6.915l0.289-0.289h7.349v0.434h0.318c0-0.482,0.732-0.724,2.197-0.724
		c1.756-0.752,2.634-2.122,2.634-4.108l0.146-1.042h-0.289v-1.187h-0.289l0.145,0.146v0.174l-0.145,0.145h-0.146
		c-0.888-1.273-2.306-1.91-4.253-1.91h-7.667l-0.289-0.318V1.918l0.289-0.29h8.535c6.673,0,10.888,2.354,12.644,7.06
		c0.404,0.945,0.606,2.025,0.606,3.24l-0.435,0.146v0.145c0.289,0,0.435,0.145,0.435,0.434c-0.154,1.775-0.404,2.662-0.752,2.662
		l-0.146-0.897h-0.724l-0.146,0.145h-0.145l-0.318-0.29v-0.289l0.174-0.145v-0.145l-0.606-0.579l-0.146,0.145h-0.289l-0.146-0.608
		h-0.289l0.146,0.145l-0.146,0.173v0.29l0.146,0.145v0.145l-0.146,0.145c0.481,0.271,0.868,0.811,1.157,1.621v0.289l-0.145,1.042
		l-0.725-0.145h-0.145l0.578,0.723h-1.013l0.146,1.476l-0.463,0.145v0.434l0.317,0.434l-1.331,0.752
		c-0.502,0-0.752-0.25-0.752-0.752h-1.156v0.463c0.48,0,1.262,0.386,2.342,1.157c0,0.212,0.242,0.318,0.725,0.318
		c0.693,0.347,1.041,0.781,1.041,1.302c1.177,0,2.305,1.379,3.386,4.137l-0.146,0.145c0.367,0,0.607,0.733,0.724,2.199
		c-0.289,0-0.435,0.097-0.435,0.289c0.387,0.174,0.578,0.521,0.578,1.042h-0.145L158.484,30.908z M147.172,33.714l0.578-0.463h0.145
		c0,0.309,0.349,0.752,1.043,1.331c-0.098,0.386-0.444,0.579-1.043,0.579C147.413,34.602,147.172,34.12,147.172,33.714z
		 M155.417,16.645l0.579,0.434l-1.042,1.186h-0.146v-0.463C155.215,17.339,155.417,16.954,155.417,16.645z M155.1,15.603v-0.145
		l0.317-0.29v0.434L155.1,15.603L155.1,15.603z M155.707,16.645V16.5l0.145-0.145l-0.145-0.174v-0.723h0.145l0.725,0.145
		c0,0.521-0.193,0.868-0.578,1.042H155.707z M173.76,5.217l-0.289,0.318h-0.289c0-0.25-0.25-0.549-0.752-0.897V4.349h-0.145
		l-0.146,0.145h-0.145l0.896,1.331l-0.752,0.579h0.146l1.329-0.723l0.146,0.145v18.43h-0.723l-0.752-0.463
		c0,0.405-0.193,0.608-0.579,0.608c0,0.579-0.098,0.868-0.289,0.868h-0.753l-0.435-0.289l-0.289,0.463l0.146,0.145h0.868v0.29
		c0.463,0,0.857,0.241,1.186,0.723l0.291-0.434c-0.291,0-0.436-0.096-0.436-0.289v-0.897h0.896l0.289,0.289v0.752
		c-0.309,0-0.463,0.097-0.463,0.289c0.405,0,0.752,0.251,1.041,0.752v1.765l-1.041,1.157h0.752v-0.579h0.289v6.481
		c-0.191,0.405-0.434,0.607-0.723,0.607l0.289,0.29l0.434-0.146v4.108h-0.289c0-0.481-0.097-0.724-0.289-0.724l-0.896-0.434v0.145
		c0,0.156,0.299,0.3,0.896,0.435l0.146,0.752v0.146l-0.435,0.434h-0.318l-0.867-0.752v0.174l0.725,0.868l-0.146,0.435h0.146
		c0.598,0,0.896-0.192,0.896-0.58h0.434v1.187l-0.288,0.29h-0.896l-0.436-0.29l-0.289,0.29h-1.041c-0.192,0-0.289-0.145-0.289-0.434
		h-0.896c0,0.289-0.098,0.434-0.289,0.434h-0.725l-0.896-0.723h-0.146v0.723h-1.766v-0.434h-0.896v0.145h0.317v0.29h-0.606
		l-0.29-0.29v-0.145l0.29-0.463v-0.724h-0.29V40.17l0.579-0.868c0-0.309-0.146-0.463-0.435-0.463l-0.146-0.146v-1.041l0.29-0.289
		h0.607l0.434,0.289h0.435l-0.146-0.146l-0.723-0.289l-0.318-0.868h-0.289v0.724h-0.29V31.46l0.29-0.289h0.145l0.896,0.289v0.174
		l0.724-0.174h1.187c0-0.192-0.192-0.289-0.578-0.289v-0.29h-1.043l-0.288-0.289l0.146-0.608c-0.387,0-0.578-0.54-0.578-1.62
		l-0.174,0.174h-0.435l-0.29-0.318v-1.16h0.436l-0.146-0.174v-0.145l0.146-0.434l-0.436-0.723V1.832l0.29-0.29h8.853l0.289,0.29
		V5.217z M191.033,7.82l0.145-0.173l-0.145-0.145V2.96h0.318V2.526h-0.318V1.918l0.318-0.29h3.528l0.29,0.29l-0.29,0.289V2.67h0.146
		c0.289,0,0.435-0.347,0.435-1.042h2.488l0.146,0.145l0.174-0.145h1.908c0.059,0.482,0.202,0.724,0.434,0.724l0.146-0.145h0.145
		l-0.145-0.145V1.629h3.674v0.434l0.146-0.145l0.146,0.145h0.289V1.918l-0.146-0.145V1.629h5.296l0.317,0.29v7.059l-0.317,0.29
		h-3.819V8.833c-0.191,0-0.289,0.145-0.289,0.434h-8.39l-0.435-0.29l-0.435,0.29h-5.438l-0.318-0.29V7.82H191.033z M191.033,22.807
		l0.145-0.145l-0.145-0.145v-3.096h0.145c0.213,0,0.366,0.396,0.463,1.187h0.146c0-0.598,0.097-0.993,0.29-1.187v-0.145
		l-0.896-0.868v-0.463l0.174-0.145l-0.174-0.145v-0.29c0.616,0,1.061,0.444,1.33,1.331l-0.145,0.145h0.289l0.145-0.145l0.145,0.145
		h0.175l0.435-0.434l-0.753-0.752v-0.29h0.146l0.174,0.145h0.145l0.146-0.145l0.723,0.145h1.188l0.723-0.145v0.145l0.146-0.145
		h0.463l0.434,0.145l0.725-0.145h2.517l1.157,0.29l0.317-0.29h0.146l0.145,0.145l0.145-0.145h5.875l0.289,0.29V17.8h-0.146
		l-0.724-0.145l-0.145,0.145v0.145l1.186,0.318l0.146-0.463H209v2.662c-0.714-0.096-1.254-0.347-1.62-0.752h-0.896v-0.29h-0.868
		c0-0.385-0.203-0.579-0.607-0.579v0.145c0.231,0.887,0.481,1.331,0.753,1.331c0.288,0,0.434,0.145,0.434,0.434l0.145,0.145h0.146
		c0-0.385,0.152-0.579,0.463-0.579l0.434-0.289l0.868,0.579h0.317l0.146-0.145h0.146L209,21.476v1.938l-0.145,0.145L209,23.704
		v0.145l-0.145,1.013l-1.043-0.145l-0.289,0.318h-0.289v-0.173l-1.041,0.173h-1.766l-0.145-0.173l-0.145,0.173h-1.043l-0.145-0.173
		l-0.145,0.173h-0.869l-0.606-0.173l-0.578,0.173h-1.042l-0.289-0.318l-1.156,0.318h-3.85c-0.191,0-0.387-0.299-0.578-0.896h-0.145
		l-0.289,0.434l-0.465-0.146v0.146c0,0.309-0.24,0.463-0.723,0.463h-0.867v-0.318h0.723v-0.145l-0.145-0.146l0.145-0.434h0.146
		l0.146,0.145h0.145l0.145-0.145V23.27c0-0.212-0.145-0.318-0.434-0.318l-0.145,0.145h-0.146l-0.435-0.145l0.145,0.145l-0.145,0.174
		v0.145l0.145,0.434l-0.289,0.723h-0.318v-1.766H191.033z M191.033,36.926h0.318l0.289,0.318v0.579h-0.607V36.926z M180.01,4.117
		l0.145-1.302l-0.145-1.042l0.145-0.145h2.055v0.434h0.145c0-0.231,0.203-0.376,0.607-0.434l0.29,0.434v0.29
		c-0.29,0-0.435,0.154-0.435,0.463l-0.607,0.289L181.63,2.96c-0.192,0.444-0.387,0.685-0.579,0.723l-0.145-0.145h-0.174
		l-0.435,0.579l0.896,0.173v1.013c-0.403,0-0.606,0.146-0.606,0.434h-0.578L180.01,4.117L180.01,4.117z M180.01,12.797h0.289
		l0.145,0.752l-0.145,1.013l-0.289-0.29V12.797z M180.443,42.828l-0.289,0.29l-0.145-0.146v-0.145l0.289-0.289l0.145,0.145V42.828z
		 M183.684,40.629l-0.289,0.29l-0.289-0.897l0.146-0.145h0.435v0.752H183.684z M189.413,25.903l-0.146,1.042l0.146,1.302v9.721
		c0,0.347-0.192,0.743-0.578,1.187v0.289l0.146-0.145h0.434v0.145l-0.145,0.146l0.145,0.724v1.91l-0.868,0.896h-0.724l-0.463-0.29
		l0.146-0.146V42.22l-0.868,0.318v0.289h-0.896V42.22l0.606-0.288h0.146v-0.146l-0.289-0.289h-0.175c0,0.251-0.288,0.55-0.867,0.897
		l-0.896-0.175c0.115-0.675,0.271-1.013,0.463-1.013h0.724c0-0.289,0.251-0.434,0.753-0.434l0.578-0.897V39.73h-0.578v-0.867h0.578
		l0.867,0.723h0.318v-0.145c-0.502,0-0.752-0.299-0.752-0.897v-0.146c0.404,0,0.703-0.24,0.896-0.723h0.145v0.289h0.289v-0.434
		l-0.289-1.187h-0.289l-0.463,0.897l0.318,0.289l-1.62,1.156l-0.463-0.145v0.145c0,0.444-0.388,0.744-1.157,0.897
		c-0.213-0.442-0.512-0.685-0.896-0.724v-0.463l0.289-0.289h0.146l0.752,0.145l-0.146-0.145v-0.146l0.289-0.868h-0.752l0.174,0.146
		v0.289h-0.463l-0.289-0.607v-0.146h-0.146c0,0.695-0.097,1.043-0.289,1.043h-0.29l-0.463-0.146v0.146l-0.289,0.867l-0.145-0.145
		h-0.146l-0.289,0.318c0.694,0,1.041,0.193,1.041,0.578l0.146,0.724l-1.187,0.146l0.146,0.145v1.042
		c0.598,0,0.896,0.097,0.896,0.289v0.897h-0.896c-0.174,0-0.318-0.3-0.436-0.897c-0.693,0-1.041-0.097-1.041-0.289v-1.042h0.289
		v-0.145c-0.386,0-0.578-0.098-0.578-0.291v-2.633l1.041-0.896h-1.041v-0.146l0.289-0.434v-0.434l-0.289-0.463v-8.679
		c0-0.193,0.146-0.29,0.434-0.29v-0.145c-0.288,0-0.434-0.096-0.434-0.29v-3.24l0.289-0.289h0.145l0.146,0.145h0.146v-0.145
		l-0.723-0.752v-5.729h0.289l0.288,0.29h-0.146l0.146,0.463h0.318v-0.752c0-0.192,0.289-0.289,0.868-0.289v-0.145l-1.043-0.289
		v-0.318l0.175-0.145v-0.145l-0.175-0.145c0.367-0.173,0.617-0.463,0.754-0.868c0.212,0,0.501,0.492,0.867,1.476h0.145l0.174-0.752
		c-0.309,0-0.463-0.096-0.463-0.29l0.752-0.145l0.725,0.434h0.145v0.434l-0.289,0.318h-0.725c0,0.444-0.153,0.781-0.463,1.012h0.146
		l-0.146,0.145v0.145l0.318,0.897l-0.463,0.289l-0.434-0.434h-0.146l-0.29,0.29c0,0.752,0.338,1.196,1.014,1.331v0.145l0.145-0.145
		h0.174l0.289,0.289v1.013c-0.501,0-0.752,0.106-0.752,0.318v0.145c0.174,0.386,0.521,0.579,1.042,0.579
		c0-0.579,0.097-0.868,0.289-0.868v0.145l0.435-0.145v-0.173c0-0.192-0.146-0.29-0.435-0.29l-0.146-0.145v-0.434l0.289-0.434
		c0.791,0,1.188,0.337,1.188,1.012c-0.193,0-0.289,0.251-0.289,0.752h-0.318v0.434c1.293,0.907,1.938,1.446,1.938,1.62
		c0,0.193,0.239,0.289,0.724,0.289l0.145,0.145v0.752l-0.145,0.724h0.145l0.753-0.29l0.146,0.145v-0.289
		c0-0.193-0.203-0.29-0.607-0.29c0-0.212,0.25-0.318,0.752-0.318v-0.145l0.867,0.318V23.09l0.146-0.579h0.289v3.392H189.413z
		 M189.413,5.882h-0.289c0-0.579-0.097-0.868-0.289-0.868l-0.29,0.289v0.29c0,0.193,0.29,0.396,0.868,0.607v4.542l-1.013-0.145
		h-0.146v0.145l1.157,0.463v1.765h-0.434v0.29c0.289,0,0.434,0.097,0.434,0.289v7.06c-0.387,0-0.578,0.347-0.578,1.042l0.145,0.145
		l-0.435,0.29h-0.435c-0.192,0-0.289-0.25-0.289-0.752h-0.174c0,0.502-0.145,0.752-0.434,0.752h-0.725l-0.288-0.29v-0.607
		c0.288,0,0.434-0.096,0.434-0.29l-0.146-0.723l-0.145,0.145h-0.145l0.145,0.145V20.9l-0.318,0.29h-0.435
		c-0.481-0.174-0.723-0.608-0.723-1.302v-0.173l0.434-0.145l-0.288-0.868c0.385,0,0.577-0.25,0.577-0.752h1.187v-0.579h0.869
		l0.174-0.145h0.145c0-0.289-0.203-0.434-0.607-0.434l-0.145-0.896l-0.146,0.145h-0.145l0.145,0.145V16.5l-0.434,0.434l-0.607,0.145
		v0.434l-0.145-0.145h-0.29l-0.289,0.897l-0.577-0.318v0.318h-1.477v-0.607l0.145-0.723c-0.289,0-0.435-0.096-0.435-0.29v-0.607
		l0.435-0.145c0.174,0.694,0.568,1.042,1.188,1.042V16.79c-0.502-0.289-0.753-0.636-0.753-1.042l0.29-0.289l0.145,0.145h0.752
		v-0.868c0-0.212,0.146-0.318,0.434-0.318v-0.29c-0.577,0-0.866-0.289-0.866-0.868l-0.146,0.146h-0.174l-1.303-0.29l-0.145,0.145
		v-0.29c0.289,0,0.435-0.105,0.435-0.318v-0.434h-0.29v0.289l-0.752-0.145h-0.289v0.145h0.289v0.29l-0.578,0.173v-0.752h0.434V11.64
		l-0.145-0.145V11.35c0.387-0.173,0.578-0.472,0.578-0.897h0.463l0.436,0.434l-0.289,0.318l0.289,0.868h0.289v-0.579h0.145
		l0.29,0.29l-0.146,0.145v0.145h0.289l0.896-0.289v-0.29c-0.561,0-1.196-0.347-1.909-1.042V9.267h-0.29
		c0,0.231-0.202,0.531-0.607,0.897l-0.145-0.145h-0.723l0.289,1.013c0,0.309-0.396,0.705-1.188,1.187v0.146h-0.578v-1.157
		l0.289-1.042h-0.289v-0.58h0.289v0.434c0.732,0,1.128-0.192,1.188-0.579V9.267h-0.146v0.318c-0.791-0.097-1.186-0.444-1.186-1.042
		l0.578-0.434h0.896l-0.145,0.723v0.29h0.145c0.02-0.386,0.115-0.579,0.289-0.579l-0.289-1.331l0.289-0.29V6.779
		c-0.289,0-0.434-0.096-0.434-0.289l-0.146,0.145h-0.145L180.732,6.2V6.056c0.502,0,0.754-0.203,0.754-0.607l-0.146-0.145
		l0.146-0.145l0.145,0.145h0.434l0.752-0.145l0.146,0.897h0.146c0.328-0.309,0.617-0.463,0.867-0.463v-0.29l-0.578-0.145
		l0.435-1.331c-0.251,0-0.442-0.289-0.578-0.868l0.289-0.434l0.724,0.29l0.174-0.145l-0.317-0.896V1.629h5.005l0.289,0.29v3.963
		H189.413z M196.791,43.117h-1.331l-0.289-0.29l0.578-0.435h0.435l0.607,0.58V43.117z M201.188,42.828l-0.724,0.29h-0.289
		c0-0.405-0.202-0.8-0.606-1.187l0.289-0.289c0.539,0,0.936,0.299,1.187,0.896h0.146v0.289H201.188z M210.909,36.781l-0.896,1.33
		h0.145l0.607-0.434h0.145v1.909l-0.145,0.146l0.145,0.145v0.145l-0.289,0.435l0.289,0.463v1.909l-0.289,0.29h-5.902v-0.146
		l0.607-0.145v-0.145h-0.317v0.145l-0.146-0.145h-0.434v0.434h-2.345l-0.752-0.579l0.463-0.897c-0.868-0.096-1.407-0.24-1.62-0.434
		l-1.042,0.434v0.435c0.29,0,0.435,0.155,0.435,0.463h-0.145l0.145,0.146v0.145l-0.289,0.29h-2.055v-0.146
		c0-0.192,0.146-0.289,0.436-0.289l-0.436-0.607h-0.723v-0.29h-0.896c0,0.502-0.289,0.752-0.869,0.752l-0.317-0.318v-1.013h0.463
		l-0.146-0.145v-0.897l0.146-0.146v-0.145c-0.327-0.29-0.627-0.434-0.896-0.434v-0.146l0.145-0.146l-0.145-0.145v-0.145l0.289-0.463
		c-0.059-0.25-0.299-0.492-0.723-0.724l-0.609,0.289l0.175,0.724c0,0.328-0.154,0.676-0.464,1.041v0.291
		c0,0.23,0.252,0.375,0.754,0.434v0.318h-0.465c0,0.289,0.203,0.434,0.609,0.434v1.477h0.577v0.145l-0.289,0.29h-1.909
		c0-0.29-0.193-0.435-0.578-0.435l-0.174-0.145v-0.896l0.317-0.435v-0.579h-0.463v-1.186l0.897-0.752
		c0-0.289,0.191-0.435,0.577-0.435v-0.29h-0.577l0.289-1.476c0.191,0,0.288,0.145,0.288,0.434c0.405,0,0.607-0.192,0.607-0.579
		l0.146-0.145l-0.146-0.145h-0.175V35.62l0.318-0.318h0.868l0.606,0.463c0-0.308,0.098-0.463,0.291-0.463h1.302v0.173l-0.146,0.145
		v0.145l0.146,0.145h0.174l0.578-0.607h5.005l0.436,0.318l0.578-0.318c0.327,0.116,0.529,0.318,0.606,0.607l-0.146,0.145
		l1.157,0.579v-0.288c-0.366,0-0.606-0.348-0.723-1.043h2.487c0.404,0,1.1,0.299,2.084,0.897l0.289-0.29l-0.146-0.145v-0.463h1.909
		l0.289,0.318v1.161H210.909z"/>
	<polygon fill="#FFFBF4" points="202.229,21.939 201.477,22.084 201.477,22.663 201.939,22.807 	"/>
	<polygon fill="#FFFBF4" points="203.561,20.319 203.705,20.897 203.995,20.897 204.284,20.608 203.995,20.319 	"/>
	<polygon fill="#FFFBF4" points="196.328,17.657 196.184,17.657 195.893,17.947 195.893,18.12 196.328,17.947 	"/>
	<path fill="#FFFBF4" d="M203.85,18.41c0,0.154,0.338,0.396,1.012,0.723v-0.29c-0.463,0-0.896-0.299-1.301-0.896h-0.896
		l-0.289,0.318c0.289,0,0.637,0.193,1.041,0.579C203.416,18.554,203.561,18.41,203.85,18.41z"/>
	<polygon fill="#FFFBF4" points="197.08,17.947 197.08,17.657 196.936,17.657 196.501,17.802 196.501,18.12 196.646,18.12 	"/>
	<polygon fill="#FFFBF4" points="186.924,7.965 187.068,7.965 188.4,7.357 188.544,7.357 188.544,7.213 187.822,7.068 
		187.359,7.068 187.359,6.779 187.068,6.779 187.214,7.502 186.924,7.502 	"/>
	<polygon fill="#FFFBF4" points="193.55,22.663 193.55,22.373 193.406,22.373 192.652,22.663 192.652,22.807 192.797,22.807 	"/>
	<path fill="#FFFBF4" d="M186.346,5.159h-0.145l-0.318-0.289l0.145-0.145h-0.435v0.868h-0.288v0.289h0.288
		c0-0.347,0.444-0.54,1.331-0.579c0.23-0.385,0.473-0.579,0.725-0.579V4.436h-1.303V5.159z"/>
	<polygon fill="#FFFBF4" points="186.924,18.554 186.924,18.699 187.068,19.133 187.648,19.133 187.648,18.843 187.068,18.554 	"/>
	<polygon fill="#FFFBF4" points="196.184,20.608 196.501,20.319 195.893,20.03 195.893,20.174 196.038,20.608 	"/>
	<path fill="#FFFBF4" d="M194.88,22.518c0,0.155,0.192,0.299,0.579,0.434c0-0.154,0.241-0.299,0.725-0.434l0.145,0.145l-0.145-0.579
		l-0.146,0.145h-0.289v-0.434h-0.434l0.289,0.434L194.88,22.518z"/>
	<path fill="#FFFBF4" d="M193.55,21.187v1.042h0.289l0.146-0.752c-0.561-0.579-0.955-0.868-1.188-0.868v0.289h0.318
		C193.116,21.091,193.26,21.187,193.55,21.187z"/>
	<path fill="#FFFBF4" d="M194.273,20.319l0.752-1.042v-0.145h-0.146c0,0.193-0.202,0.289-0.606,0.289v0.29h-0.146v-0.29
		l-0.289-0.289h-0.289C193.55,19.673,193.791,20.068,194.273,20.319z"/>
	<polygon fill="#FFFBF4" points="181.775,36.492 181.63,36.348 181.34,36.348 181.34,36.492 181.63,36.781 181.775,36.781 	"/>
	<polygon fill="#FFFBF4" points="182.671,28.854 182.354,28.564 181.63,28.709 181.486,28.564 181.486,28.854 181.919,29.288 
		182.671,28.999 	"/>
	<path fill="#FFFBF4" d="M181.195,32.094h-0.463v0.289h0.318l-0.145,0.145v0.145l0.145,0.434h-0.145l-0.463,0.145v0.145h0.463
		c0.348-0.675,0.982-1.013,1.908-1.013v-0.289l-1.33,0.289L181.195,32.094z"/>
	<path fill="#FFFBF4" d="M185.738,25.18v0.145l-0.146,0.145l0.146,0.146v0.145l-0.146,0.723h0.29l0.145-1.157l0.175,0.145h0.289
		v-0.145c-0.193,0-0.289-0.25-0.289-0.752c-0.502-0.058-0.753-0.202-0.753-0.434l0.578-1.187h-0.435v0.318h-0.434l-0.146-0.174
		h-0.145l0.145-0.723v-0.145h-0.289l-0.145,0.868l-0.146-0.145h-0.173l-0.146,0.463h-1.012v0.579h-0.608v-0.289h0.317V23.56
		l-0.145-0.463h0.145c0.231,0,0.426-0.337,0.58-1.012h-0.58l-0.752,1.186h0.435v0.145l-0.724,0.145v0.29h0.289v0.579l0.146,0.752
		l-0.868,0.289v-0.145l-0.752,0.145v0.145l0.145,0.145v0.146l1.477-0.29v0.29h0.289v-1.042h0.753l-0.146-0.579l0.146-0.434h1.013
		l0.463,0.434l-0.145,0.145v0.29l0.289,0.318v-0.463h0.289L185.738,25.18z"/>
	<rect x="203.705" y="21.187" fill="#FFFBF4" width="0.146" height="0.607"/>
	<polygon fill="#FFFBF4" points="186.202,28.102 186.346,28.102 186.779,27.957 186.779,27.667 186.202,27.667 	"/>
	<polygon fill="#FFFBF4" points="186.202,28.564 186.027,28.564 185.16,28.854 185.16,29.143 185.738,29.143 186.202,28.709 	"/>
	<polygon fill="#FFFBF4" points="181.051,30.474 181.051,30.619 181.195,30.619 181.195,30.474 181.34,30.619 181.63,30.619 
		181.63,30.474 181.195,30.329 	"/>
	<path fill="#FFFBF4" d="M187.966,30.908l-1.938-0.29v0.29l0.896,0.145v0.146c0,0.328-0.145,0.675-0.434,1.042v0.145h0.289
		c0.191,0,0.289-0.202,0.289-0.607l0.896-0.145L187.966,30.908L187.966,30.908z"/>
	<polygon fill="#FFFBF4" points="181.775,30.763 182.208,31.197 182.208,31.053 181.775,30.619 	"/>
	<path fill="#FFFBF4" d="M183.105,25.903l-0.435-0.145c0.192,0.231,0.289,0.579,0.289,1.042h0.29c0.173,0,0.318-0.25,0.434-0.752
		l-0.145-0.145l0.579-0.29v0.29h0.146v-0.579l-0.869-0.145C183.395,25.662,183.298,25.903,183.105,25.903z"/>
	<polygon fill="#FFFBF4" points="180.907,26.8 180.907,27.089 181.34,27.234 181.486,27.089 181.486,26.337 181.34,26.337 	"/>
	<polygon fill="#FFFBF4" points="183.105,31.342 183.105,31.487 183.684,31.487 183.684,31.197 183.54,31.197 	"/>
	<path fill="#FFFBF4" d="M181.051,39.152c0,0.291-0.154,0.435-0.463,0.435l0.318,0.29l-0.174,0.145v0.291h0.752v-0.146
		c-0.192-0.212-0.289-0.55-0.289-1.013h-0.145V39.152z"/>
	<polygon fill="#FFFBF4" points="187.359,30.185 187.648,30.185 187.648,29.577 187.503,29.577 	"/>
	<polygon fill="#FFFBF4" points="187.503,26.192 187.214,26.192 187.214,26.337 187.503,26.626 	"/>
	<polygon fill="#FFFBF4" points="181.051,19.885 181.051,20.319 181.486,19.885 181.34,19.711 181.195,19.711 	"/>
	<path fill="#FFFBF4" d="M188.4,25.324h-0.435v0.579C188.102,25.903,188.246,25.71,188.4,25.324z"/>
	<path fill="#FFFBF4" d="M188.255,29.288c0-0.482,0.241-0.723,0.724-0.723c-0.059-0.386-0.348-0.685-0.867-0.897l-0.463,0.434v0.145
		l0.174,1.042L188.255,29.288L188.255,29.288z"/>
	<polygon fill="#FFFBF4" points="180.907,18.265 181.195,17.802 181.051,17.657 180.732,17.657 180.588,18.12 180.732,18.265 	"/>
	<path fill="#FFFBF4" d="M188.544,35.016l-0.435-0.145c0,0.502-0.25,0.752-0.752,0.752v0.145l1.187,0.145V35.016z"/>
	<polygon fill="#FFFBF4" points="182.064,36.203 182.498,36.059 182.498,35.913 181.775,35.913 	"/>
	<path fill="#FFFBF4" d="M188.111,41.354v0.145h0.145c0.579-0.096,0.868-0.241,0.868-0.434v-0.146h-0.579L188.111,41.354z"/>
	<polygon fill="#FFFBF4" points="182.064,34.148 181.486,34.583 181.486,35.161 182.208,34.293 	"/>
	<polygon fill="#FFFBF4" points="182.498,7.068 182.671,7.068 183.395,6.923 183.395,6.49 182.498,6.779 	"/>
	<polygon fill="#FFFBF4" points="181.775,37.389 182.064,37.678 182.354,37.389 181.775,37.244 	"/>
	<polygon fill="#FFFBF4" points="198.411,35.913 198.092,36.203 198.092,36.492 198.411,36.492 	"/>
	<path fill="#FFFBF4" d="M186.491,12.97v0.29c0.192,0,0.288,0.193,0.288,0.579h0.289l-0.434-0.724V12.97H186.491z"/>
	<path fill="#FFFBF4" d="M186.924,15.603l-0.578-0.145l-1.041,0.145v0.434l2.055-0.434l0.289-0.289v-0.29l-0.289-0.289
		C187.359,15.237,187.214,15.526,186.924,15.603z"/>
	<polygon fill="#FFFBF4" points="200.898,37.1 201.188,36.781 200.609,36.781 	"/>
	<polygon fill="#FFFBF4" points="185.449,7.213 185.305,7.213 185.016,7.502 185.016,7.647 185.305,7.647 185.593,7.357 	"/>
	<polygon fill="#FFFBF4" points="203.85,37.967 203.416,38.4 203.242,38.4 203.242,38.689 203.85,38.546 	"/>
	<polygon fill="#FFFBF4" points="203.098,36.348 202.953,36.348 202.953,37.1 203.242,36.781 	"/>
	<path fill="#FFFBF4" d="M202.953,40.456l-0.578-0.579v-0.725h-0.29v2.199c0.328,0.463,0.714,0.752,1.157,0.869v-0.146l-0.578-1.013
		L202.953,40.456z"/>
	<polygon fill="#FFFBF4" points="202.953,38.546 202.953,38.689 203.098,39.152 203.242,39.152 203.242,39.009 203.098,38.546 	"/>
	<rect x="184.727" y="8.11" fill="#FFFBF4" width="0.289" height="0.434"/>
	<polygon fill="#FFFBF4" points="185.305,6.2 185.16,6.2 184.871,6.49 184.871,6.634 185.16,6.634 	"/>
	<path fill="#FFFBF4" d="M202.809,37.533v-0.145h-0.289l-0.146,0.145v0.434h0.146C202.52,37.678,202.615,37.533,202.809,37.533z"/>
	<polygon fill="#FFFBF4" points="188.544,17.947 188.255,18.265 188.544,18.554 188.834,18.554 188.834,18.41 188.689,17.947 	"/>
	<path fill="#FFFBF4" d="M188.834,2.96l-0.146-0.145h-0.145l-0.434,0.145c0.191,0.771,0.386,1.157,0.578,1.157l0.435-0.434
		C188.93,3.683,188.834,3.442,188.834,2.96z"/>
	<path fill="#FFFBF4" d="M186.346,9.73l-0.318-0.29l-0.435,0.145v0.579l0.753,0.145l0.146-0.145l1.476,0.434v-0.145
		c0-0.192-0.154-0.289-0.463-0.289v-0.145l0.607-0.579h0.867l0.146-0.463l-0.146-0.145h-0.289l-1.476,0.897L186.346,9.73
		L186.346,9.73z"/>
	<path fill="#FFFBF4" d="M185.883,11.929v0.145l0.463,0.434l0.146-0.145h0.288c0.482,0,0.725,0.203,0.725,0.607h0.463v-0.173
		c-0.404-0.424-1.052-0.762-1.938-1.013L185.883,11.929z"/>
	<polygon fill="#FFFBF4" points="188.689,12.97 188.4,12.652 188.111,12.97 	"/>
	<polygon fill="#FFFBF4" points="187.359,14.417 187.214,13.983 187.068,13.983 187.068,14.417 	"/>
	<path fill="#FFFBF4" d="M198.555,39.298l0.146-0.752l-0.435,0.606h-0.318l-1.012-0.463l-0.607,0.175l-0.436-0.318v0.146
		l0.897,0.752l0.289-0.291h0.579l1.33,1.158l0.145-0.145v-0.145C198.748,40.021,198.555,39.781,198.555,39.298z"/>
	<path fill="#FFFBF4" d="M199.712,39.443c0,0.154,0.3,0.347,0.896,0.578v-0.145l-0.145-0.145v-0.146l0.145-0.146l-0.434-0.145v0.145
		h-0.462V39.443z"/>
	<polygon fill="#FFFBF4" points="200.32,36.059 200.175,35.913 199.857,35.913 199.857,36.059 200.32,36.203 	"/>
	<path fill="#FFFBF4" d="M200.609,38.546l-0.289-0.289h-0.289v0.896l0.145,0.146C200.213,38.797,200.359,38.546,200.609,38.546z"/>
	<polygon fill="#FFFBF4" points="185.738,3.683 185.593,3.683 185.16,4.117 185.305,4.117 	"/>
	<polygon fill="#FFFBF4" points="193.984,8.399 193.839,8.254 193.695,8.254 193.695,8.833 193.839,8.833 	"/>
	<polygon fill="#FFFBF4" points="192.941,3.394 192.797,3.249 192.652,3.249 192.363,3.539 192.797,3.828 	"/>
	<polygon fill="#FFFBF4" points="194.417,4.725 194.128,4.725 194.128,5.303 194.417,5.014 	"/>
	<polygon fill="#FFFBF4" points="192.652,7.965 192.941,7.965 193.26,7.647 192.652,7.647 	"/>
	<path fill="#FFFBF4" d="M192.363,6.2l0.146-0.145l0.435,0.579v0.868h0.174l0.436-0.145V7.213c-0.271-0.637-0.715-1.128-1.332-1.476
		l-0.145,0.145v0.174l0.145,0.145L192.363,6.2L192.363,6.2z"/>
	<path fill="#FFFBF4" d="M203.242,24.427v0.29l0.607-0.29v-0.434h-0.289C203.561,24.283,203.455,24.427,203.242,24.427z"/>
	<polygon fill="#FFFBF4" points="207.09,21.794 206.771,21.476 206.482,21.476 206.627,22.229 	"/>
	<polygon fill="#FFFBF4" points="186.491,2.96 186.202,2.67 185.883,3.249 186.202,3.249 	"/>
	<polygon fill="#FFFBF4" points="197.659,7.357 197.08,7.357 197.08,7.647 197.369,7.647 	"/>
	<path fill="#FFFBF4" d="M209.434,38.689l0.146-0.145v-0.289h-0.146l-0.289,0.289c0.097,0.752,0.24,1.244,0.435,1.477L209,40.918
		h0.289c0-0.193,0.145-0.29,0.436-0.29v-0.463l-0.146-0.724l0.578-0.145l0.174,0.145l0.146-0.145l-0.146-0.607l-0.752,0.174
		L209.434,38.689z"/>
	<polygon fill="#FFFBF4" points="204.572,39.298 204.572,39.587 204.717,39.732 205.007,39.732 205.007,39.587 204.717,39.298 	"/>
	<polygon fill="#FFFBF4" points="207.379,37.678 207.379,37.967 207.523,38.689 207.668,38.689 207.813,37.823 207.668,37.678 	"/>
	<path fill="#FFFBF4" d="M203.561,22.518h-0.318v0.29l0.463,1.042h0.146v-0.897C203.657,22.952,203.561,22.807,203.561,22.518z"/>
	<path fill="#FFFBF4" d="M205.904,39.443l0.145,0.145l0.145,0.145c0.193,0,0.291,0.193,0.291,0.58l0.463,0.145l0.145-0.145v-0.291
		l-0.896-0.578H205.904z"/>
	<path fill="#FFFBF4" d="M204.717,3.828V3.683h-0.145c0,0.405-0.289,0.607-0.868,0.607l-0.146-0.173l-0.145,0.607h0.867
		L204.717,3.828z"/>
	<polygon fill="#FFFBF4" points="203.85,40.166 203.705,40.918 203.85,40.918 204.139,40.629 204.139,39.732 203.85,39.732 	"/>
	<polygon fill="#FFFBF4" points="197.803,4.436 197.369,4.117 197.225,4.725 197.514,4.725 	"/>
	<polygon fill="#FFFBF4" points="200.898,8.11 200.898,7.647 200.609,7.647 200.32,8.544 200.464,8.544 	"/>
	<path fill="#FFFBF4" d="M188.979,32.239v-0.146h-0.435l-0.146,0.146v0.434c0.289,0,0.436,0.193,0.436,0.579h0.434
		c-0.386-0.443-0.578-0.781-0.578-1.013H188.979z"/>
	<polygon fill="#FFFBF4" points="202.953,8.544 202.664,8.544 202.664,8.833 202.953,9.123 	"/>
	<polygon fill="#FFFBF4" points="203.242,5.014 202.809,5.448 203.242,5.448 	"/>
</g>
<g enable-background="new    ">
	<path fill="#C92127" d="M100.515,34.446c0.374-0.804,2.811-1.835,3.497-0.747c3.611,5.577,5.493,11.872,8.09,18.286
		c0.094,0.685,1.253,0.525,1.829,1.199c0.329,0.439,0.422,1.124,0.195,1.424c-1.151,3.757,2.568,6.202,2.548,9.59
		c-0.016,1.451-2.724,2.467-3.966,1.241c-2.125-2.182-1.341-6.263-4.134-7.438c-2.103-0.841-5.11-0.053-6.807,1.684
		c-2.173,2.178,0.625,10.066-5.159,8.227c-1.193-3.223,0.28-6.592,0.563-10.015c0.364-4.401,0.904-9.095,1.743-13.561
		C99.612,40.801,98.97,37.289,100.515,34.446z M102.241,54.515c1.359,0.513,4.665,0.329,4.916-1.371
		c0.494-3.452-1.858-6.514-3.708-9.429c-0.965,1.581-0.999,3.305-0.985,4.967C102.443,50.889,100.769,53.965,102.241,54.515z"/>
	<path fill="#C92127" d="M123.546,39.029c2.708-1.015,5.033-0.903,7.718-0.52c1.046,0.18,2.801,1.229,2.159,2.82
		c-0.505,1.412-1.853,1.382-3.061,1.977c-1.917,0.907-4.228-0.28-5.784,0.523c-4.017,2.054-4.52,7.01-2.699,10.898
		c1.91,4.143,7.02,5.754,11.043,3.752c1.51-0.743,3.348-3.412,4.915-2.553c1.875,1.141,3.122,2.797,1.503,4.308
		c-3.414,3.314-8.175,3.857-13.01,3.069c-2.091-0.357-4.361-0.854-6.236-1.994c-3.232-2.028-4.37-5.633-4.387-9.283
		C115.764,46.541,117.88,41.201,123.546,39.029z"/>
	<path fill="#C92127" d="M145.448,28.296c0.373-0.804,2.811-1.835,3.496-0.747c3.611,5.576,5.493,11.871,8.09,18.286
		c0.094,0.685,1.254,0.525,1.83,1.198c0.328,0.44,0.422,1.125,0.194,1.424c-1.151,3.758,2.567,6.203,2.548,9.591
		c-0.017,1.452-2.724,2.467-3.966,1.241c-2.126-2.182-1.341-6.263-4.135-7.439c-2.102-0.84-5.11-0.053-6.807,1.684
		c-2.172,2.178,0.626,10.067-5.159,8.228c-1.192-3.222,0.28-6.593,0.563-10.015c0.365-4.401,0.904-9.096,1.743-13.561
		C144.545,34.652,143.903,31.14,145.448,28.296z M147.174,48.365c1.359,0.512,4.665,0.33,4.916-1.371
		c0.494-3.452-1.858-6.514-3.708-9.43c-0.965,1.582-0.998,3.306-0.985,4.969C147.376,44.739,145.702,47.815,147.174,48.365z"/>
	<path fill="#C92127" d="M162.887,53.252c0.328-0.742,1.596-1.293,1.526-2.195c-0.665-6.034-2.135-12.064-3.68-18.246
		c-0.086-0.633-1.076-1.195-1.592-1.823c-0.24-0.182-0.123-0.896-0.152-1.106c0.177-1.852,2.151-2.337,3.341-2.285
		c2.004-0.274,4.494-0.131,6.679,0.914c2.935,1.424,5.258,3.093,7.637,5.562c6.142,6.411,2.201,16.084-4.094,20.329
		c-2.056,1.464-4.447,2.436-6.995,1.871C164.173,55.978,162.593,54.635,162.887,53.252z M173.757,47.896
		c1.242-2.695,2.639-5.84,1.188-8.596c-1.614-3.164-5.126-6.443-9.251-6.362c0.238,1.74,3.061,18.437,3.535,18.372
		C171.29,51.457,173.094,49.33,173.757,47.896z"/>
	<path fill="#C92127" d="M180.155,29.079c2.36-4.728,9.302-6.215,14.147-3.386c1.05,0.607,0.332,2.425-1.319,2.919
		c-2.179,0.568-4.632-0.87-6.663,0.375c-2.523,1.582,0.225,5.179-0.445,7.743c3.402,1.307,7.609-2.492,9.86,1.391
		c-1.482,3.694-6.642,1.713-8.35,4.15c-1.396,1.965-0.01,5.428,0.651,8.291c4.003,0.204,7.017-2.895,10.571-4.4
		c0.175-0.294,0.721,0.168,1.014,0.344c0.713,1.674,0.169,3.199-1.182,3.922c-3.715,1.905-6.868,4.379-11.01,4.73
		c-1.249-0.099-2.925,0.615-3.302-0.569c-1.746-3.737-0.804-7.839-2.332-11.554c-0.319-0.761-1.715-1.537-1.106-2.587
		c-0.036-0.264,0.409-0.54,0.637-0.841c0.338-1.065-0.039-2.249-0.169-3.199C180.826,33.984,179.005,31.277,180.155,29.079z"/>
	<path fill="#C92127" d="M227.624,50.517c-4.567-6.681-4.164-15.116-8.204-21.869c-1.602,3.603-1.603,7.525-2.904,11.356
		c-0.191,0.563,0.437,1.229,0.245,1.793c-0.582,1.637-2.194,3.201-4.095,2.656c-1.038-0.128-2.229-0.984-2.374-2.039
		c-0.581-2.284-1.521-5.218-3.129-5.589c-1.33-0.302,0.054,2.356-0.247,3.687c-0.51,2.164,0.635,4.641,0.652,6.732
		s-4.075,3.19-5.469,2.038c-3.259-2.616-0.879-7.991-0.907-12.123c0.031-5.269-0.563-10.398-0.532-15.668
		c-0.018-2.092,3.567-2.583,4.486-1.365c3.374,3.459,4.302,8.274,6.467,12.706c0.299,0.227,0.928,0.894,1.109,0.654
		c2.704-5.366,1.561-15.685,9.24-14.91c4.629,9.09,5.72,19.417,10.211,28.685c0.603,1.262-0.737,2.464-1.966,2.902
		C229.076,50.533,227.924,50.744,227.624,50.517z"/>
	<path fill="#C92127" d="M236.473,49.198c0.024-4.14,2.248-9.87,1.246-13.655c-1.518-5.594-7.309-11.409-8.863-17.267
		c-0.441-1.659,2.497-3.35,3.741-2.499c3.307,2.179,3.897,9.243,6.96,11.993c1.772-3.142,0.877-9.681,3.671-12.427
		c1.514-1.497,4.522-1.103,4.044,0.897c-1.079,4.284-2.706,10.844-4.048,15.166c-0.28,1.488,0.126,2.883,1.241,3.967
		c0.539,0.409,0.224,1.634,0.085,2.19c-0.645,0.786-2.098,0.771-2.413,1.997c-0.276,3.475-0.521,7.967-1.016,11.418
		c-0.11,0.768-1.457,1.918-3.245,1.412C236.426,51.997,236.48,50.433,236.473,49.198z"/>
</g>
</svg>
